<?xml version="1.0" encoding="UTF-8"?>
<svg id="Layer_2" data-name="Layer 2" xmlns="http://www.w3.org/2000/svg" xmlns:xlink="http://www.w3.org/1999/xlink" viewBox="0 0 723.47 1065.45">
  <defs>
    <style>
      .cls-1 {
        clip-path: url(#clippath-4);
      }

      .cls-2 {
        fill: #272b5d;
      }

      .cls-3, .cls-4, .cls-5, .cls-6, .cls-7 {
        fill: #fff;
      }

      .cls-8 {
        fill: #67c0b6;
      }

      .cls-9, .cls-10 {
        fill: none;
      }

      .cls-11 {
        fill: #e62a77;
      }

      .cls-12 {
        fill: #ee3e80;
      }

      .cls-13 {
        clip-path: url(#clippath-1);
      }

      .cls-14, .cls-4, .cls-5, .cls-6, .cls-7 {
        isolation: isolate;
      }

      .cls-15 {
        fill: #e72a77;
      }

      .cls-4 {
        font-size: 85.86px;
      }

      .cls-4, .cls-5, .cls-6, .cls-7 {
        font-weight: 700;
      }

      .cls-4, .cls-6 {
        font-family: Verdana-Bold, Verdana;
      }

      .cls-16 {
        clip-path: url(#clippath-3);
      }

      .cls-5 {
        font-size: 15.18px;
      }

      .cls-5, .cls-7 {
        font-family: GothamRounded-Bold, 'Gotham Rounded';
      }

      .cls-17 {
        fill: #5fc1b5;
      }

      .cls-18 {
        fill: #e490bd;
      }

      .cls-6 {
        font-size: 75.13px;
      }

      .cls-19 {
        fill: #023f88;
      }

      .cls-20 {
        clip-path: url(#clippath-2);
      }

      .cls-10 {
        stroke: #fff;
        stroke-miterlimit: 10;
        stroke-width: 7px;
      }

      .cls-21 {
        clip-path: url(#clippath);
      }

      .cls-7 {
        font-size: 15.18px;
      }
    </style>
    <clipPath id="clippath">
      <rect class="cls-9" width="723.47" height="1065.45"/>
    </clipPath>
    <clipPath id="clippath-1">
      <rect class="cls-9" x="-252.92" y="-88.59" width="1065.77" height="1237.58"/>
    </clipPath>
    <clipPath id="clippath-2">
      <rect class="cls-9" x="215.03" y="793.06" width="297.35" height="220.07"/>
    </clipPath>
    <clipPath id="clippath-3">
      <rect class="cls-9" x="215.03" y="793.06" width="297.35" height="220.07"/>
    </clipPath>
    <clipPath id="clippath-4">
      <rect class="cls-9" x="-252.92" y="-88.59" width="1065.77" height="1237.58"/>
    </clipPath>
  </defs>
  <g id="Layer_1-2" data-name="Layer 1">
    <g id="Layer_1-2" data-name="Layer 1-2">
      <g class="cls-21">
        <g>
          <rect class="cls-19" x="-1.06" y="-3.4" width="727.1" height="1070.87"/>
          <g class="cls-13">
            <g>
              <path class="cls-3" d="M812.85,11.12c0-50.4-38.32-91.19-85.56-91.19s-85.61,40.78-85.61,91.19v330.7c0,50.35,38.37,91.18,85.61,91.18s85.56-40.84,85.56-91.18V11.12Z"/>
              <path class="cls-17" d="M168.96,1149c50.4,0,91.19-38.32,91.19-85.56s-40.78-85.61-91.19-85.61H-161.74c-50.35,0-91.18,38.37-91.18,85.61s40.84,85.56,91.18,85.56H168.96Z"/>
              <path class="cls-12" d="M3.61-88.59c-47.76,0-86.4,38.69-86.4,86.37S-44.14,84.21,3.61,84.21,90.01,45.47,90.01-2.21,51.37-88.59,3.61-88.59"/>
            </g>
          </g>
          <g class="cls-14">
            <text class="cls-4" transform="translate(90.01 466.26)"><tspan x="0" y="0">Wij worden</tspan></text>
          </g>
          <g class="cls-14">
            <text class="cls-4" transform="translate(90.01 561.22)"><tspan x="0" y="0">100 jaar</tspan></text>
          </g>
          <g class="cls-14">
            <text class="cls-6" transform="translate(90.01 647.89)"><tspan x="0" y="0">vier jij mee?</tspan></text>
          </g>
          <g class="cls-20">
            <g>
              <path class="cls-8" d="M346.37,816.3c0-2.7-2.19-4.89-4.89-4.89s-4.89,2.19-4.89,4.89,2.19,4.89,4.89,4.89,4.89-2.19,4.89-4.89"/>
              <path class="cls-8" d="M376.93,811.41c-2.7,0-4.89,2.19-4.89,4.89s2.19,4.89,4.89,4.89h17.73c2.7,0,4.89-2.19,4.89-4.89s-2.19-4.89-4.89-4.89h-17.73Z"/>
              <path class="cls-8" d="M306.04,846.86c-2.7,0-4.89,2.19-4.89,4.89s2.19,4.89,4.89,4.89h17.73c2.7,0,4.89-2.19,4.89-4.89s-2.19-4.89-4.89-4.89h-17.73Z"/>
              <path class="cls-8" d="M346.37,904.91c0-2.7-2.19-4.89-4.89-4.89s-4.89,2.19-4.89,4.89,2.19,4.89,4.89,4.89,4.89-2.19,4.89-4.89"/>
              <path class="cls-8" d="M381.82,887.19c0-2.7-2.19-4.89-4.89-4.89s-4.89,2.19-4.89,4.89,2.19,4.89,4.89,4.89,4.89-2.19,4.89-4.89"/>
              <path class="cls-3" d="M332.91,942.44c0-2.7,2.19-4.89,4.89-4.89s4.89,2.19,4.89,4.89v.39c2.25-2.9,5.21-5.53,10.16-5.53,4.5,0,7.91,1.99,9.71,5.46,3.02-3.54,6.62-5.46,11.32-5.46,7.27,0,11.64,4.37,11.64,12.67v17.95c0,2.7-2.19,4.89-4.89,4.89s-4.89-2.19-4.89-4.89v-14.73c0-4.63-2.06-7.01-5.72-7.01s-5.91,2.38-5.91,7.01v14.73c0,2.7-2.19,4.89-4.89,4.89s-4.89-2.19-4.89-4.89v-14.73c0-4.63-2.06-7.01-5.73-7.01s-5.91,2.38-5.91,7.01v14.73c0,2.7-2.19,4.89-4.89,4.89s-4.89-2.19-4.89-4.89v-25.47h0Z"/>
              <path class="cls-3" d="M432.78,929.96c0-2.7,2.19-4.89,4.89-4.89s4.89,2.19,4.89,4.89v37.94c0,2.7-2.19,4.89-4.89,4.89s-4.89-2.19-4.89-4.89v-37.94Z"/>
              <path class="cls-3" d="M215.67,955.37v-.13c0-9.84,7.53-17.94,18.07-17.94,5.21,0,8.88,1.42,11.77,3.86.65.52,1.54,1.68,1.54,3.35,0,2.44-1.99,4.37-4.44,4.37-1.29,0-2.25-.52-2.83-.96-1.73-1.35-3.54-2.19-6.11-2.19-4.89,0-8.36,4.31-8.36,9.39v.13c0,5.27,3.41,9.52,8.74,9.52,2.57,0,4.57-.9,6.43-2.38.52-.39,1.48-.9,2.64-.9,2.32,0,4.12,1.87,4.12,4.18,0,1.28-.58,2.31-1.42,3.09-2.89,2.64-6.56,4.44-12.22,4.44-10.36,0-17.95-7.97-17.95-17.81"/>
              <path class="cls-3" d="M254.06,929.96c0-2.7,2.19-4.89,4.89-4.89s4.89,2.19,4.89,4.89v12.86c2.25-2.89,5.14-5.53,10.1-5.53,7.4,0,11.7,4.89,11.7,12.8v17.81c0,2.7-2.19,4.89-4.89,4.89s-4.88-2.19-4.88-4.89v-14.73c0-4.63-2.19-7.01-5.92-7.01s-6.11,2.38-6.11,7.01v14.73c0,2.7-2.19,4.89-4.89,4.89s-4.89-2.19-4.89-4.89v-37.94h0s0,0,0,0Z"/>
              <path class="cls-3" d="M316.77,952.48c-.58-4.38-3.16-7.33-7.27-7.33s-6.69,2.9-7.46,7.33h14.73ZM310.46,973.18c-10.35,0-18-7.27-18-17.81v-.13c0-9.85,7.01-17.95,17.04-17.95,11.52,0,16.59,9.45,16.59,16.59,0,2.83-1.99,4.7-4.57,4.7h-19.36c.97,4.44,4.05,6.75,8.42,6.75,2.7,0,4.95-.84,6.95-2.31.71-.52,1.35-.77,2.38-.77,2.19,0,3.79,1.68,3.79,3.86,0,1.28-.58,2.25-1.28,2.89-3.02,2.57-6.95,4.18-11.96,4.18"/>
              <path class="cls-3" d="M416.64,952.48c-.58-4.38-3.16-7.33-7.27-7.33s-6.69,2.9-7.46,7.33h14.73ZM410.33,973.18c-10.35,0-18-7.27-18-17.81v-.13c0-9.85,7.01-17.95,17.04-17.95,11.52,0,16.59,9.45,16.59,16.59,0,2.83-1.99,4.7-4.57,4.7h-19.36c.97,4.44,4.05,6.75,8.42,6.75,2.7,0,4.95-.84,6.95-2.31.71-.52,1.35-.77,2.38-.77,2.19,0,3.79,1.68,3.79,3.86,0,1.28-.58,2.25-1.28,2.89-3.02,2.57-6.95,4.18-11.96,4.18"/>
              <path class="cls-3" d="M477.02,955.37v-.13c0-5.08-3.67-9.52-9.07-9.52s-8.94,4.31-8.94,9.39v.13c0,5.08,3.67,9.52,9.06,9.52s8.94-4.31,8.94-9.39M449.37,955.37v-.13c0-9.9,7.97-17.94,18.71-17.94s18.58,7.91,18.58,17.81v.13c0,9.9-7.97,17.95-18.72,17.95s-18.58-7.91-18.58-17.81"/>
              <path class="cls-3" d="M493.48,929.96c0-2.7,2.19-4.89,4.89-4.89s4.89,2.19,4.89,4.89v7.35h4.31c2.31,0,4.18,1.87,4.18,4.19s-1.87,4.18-4.18,4.18h-4.31v15.16c0,2.25.97,3.35,3.15,3.35.32,0,.97-.06,1.16-.06,2.19,0,4.05,1.8,4.05,4.05,0,1.74-1.16,3.15-2.5,3.67-1.8.71-3.47.97-5.6.97-5.98,0-10.03-2.38-10.03-10.36v-32.48h0s0,0,0,0Z"/>
              <path class="cls-3" d="M268.21,998.43h-.97c-.44,0-.76-.35-.76-.78s.34-.76.76-.76h.97v-1.04c0-1.35.37-2.38,1.03-3.05.6-.59,1.47-.92,2.55-.92.57,0,1.01.05,1.4.13.34.08.65.37.65.77,0,.46-.39.8-.85.76-.3-.05-.63-.11-.97-.11-1.38,0-2.07.83-2.07,2.52v.97h3.08c.44,0,.78.32.78.75s-.34.76-.78.76h-3.05v9.53c0,.48-.37.9-.87.9s-.9-.41-.9-.9v-9.53h0Z"/>
              <path class="cls-3" d="M275.01,1002.87v-.05c0-3.35,2.63-6.2,6.2-6.2s6.18,2.8,6.18,6.16v.05c0,3.36-2.64,6.2-6.22,6.2s-6.16-2.8-6.16-6.16M285.57,1002.87v-.05c0-2.55-1.9-4.63-4.41-4.63s-4.34,2.09-4.34,4.6v.05c0,2.55,1.88,4.62,4.39,4.62s4.36-2.07,4.36-4.57"/>
              <path class="cls-3" d="M290.59,997.65c0-.48.39-.9.87-.9.51,0,.9.39.9.9v2.23c.87-1.97,2.6-3.17,4.09-3.17.53,0,.87.39.87.9s-.32.82-.78.89c-2.3.28-4.18,2-4.18,5.42v4.05c0,.48-.37.89-.87.89s-.9-.39-.9-.89v-10.31h0Z"/>
              <path class="cls-3" d="M307.42,1005.6v-7.16h-.97c-.41,0-.78-.37-.78-.78,0-.44.37-.78.78-.78h.97v-2.8c0-.48.37-.9.87-.9s.89.41.89.9v2.8h3.08c.44,0,.8.37.8.78s-.37.78-.8.78h-3.08v6.94c0,1.44.8,1.97,2,1.97.62,0,.94-.17,1.08-.17.42,0,.76.35.76.76,0,.32-.21.58-.51.69-.51.2-1.05.32-1.75.32-1.91,0-3.35-.94-3.35-3.36"/>
              <path class="cls-3" d="M315,1002.87v-.05c0-3.35,2.62-6.2,6.2-6.2s6.18,2.8,6.18,6.16v.05c0,3.36-2.64,6.2-6.22,6.2s-6.16-2.8-6.16-6.16M325.56,1002.87v-.05c0-2.55-1.9-4.63-4.41-4.63s-4.34,2.09-4.34,4.6v.05c0,2.55,1.88,4.62,4.39,4.62s4.36-2.07,4.36-4.57"/>
              <path class="cls-3" d="M341.89,1007.96c0,.51-.39.9-.87.9s-.9-.39-.9-.9v-1.61c-.97,1.42-2.37,2.64-4.55,2.64-2.85,0-5.67-2.25-5.67-6.16v-.05c0-3.88,2.83-6.18,5.67-6.18,2.21,0,3.64,1.2,4.55,2.52v-6.39c0-.51.37-.89.87-.89s.9.39.9.89v15.21ZM331.71,1002.77v.05c0,2.8,1.95,4.6,4.18,4.6s4.29-1.86,4.29-4.6v-.05c0-2.74-2.09-4.57-4.29-4.57s-4.18,1.7-4.18,4.57"/>
              <path class="cls-3" d="M344.95,1005.3v-.05c0-2.5,2.07-3.83,5.08-3.83,1.52,0,2.6.2,3.66.5v-.41c0-2.14-1.31-3.24-3.54-3.24-1.2,0-2.21.28-3.08.66-.11.05-.23.07-.32.07-.41,0-.78-.35-.78-.76,0-.37.26-.64.49-.73,1.17-.51,2.37-.8,3.88-.8,1.68,0,2.97.43,3.84,1.31.8.8,1.21,1.95,1.21,3.47v6.5c0,.51-.37.87-.85.87-.51,0-.85-.37-.85-.83v-1.08c-.83,1.08-2.21,2.05-4.3,2.05-2.21,0-4.43-1.26-4.43-3.7M353.7,1004.38v-1.15c-.87-.25-2.04-.51-3.49-.51-2.23,0-3.47.97-3.47,2.46v.05c0,1.49,1.38,2.37,2.99,2.37,2.18,0,3.97-1.33,3.97-3.21"/>
              <path class="cls-3" d="M358.53,1012.14c-.27-.12-.55-.35-.55-.76,0-.44.37-.76.76-.76.16,0,.3.05.44.09.35.12.69.21,1.29.21,1.1,0,1.75-.66,2.39-2.11l.09-.18-4.96-10.52c-.07-.16-.12-.32-.12-.48,0-.49.39-.87.9-.87s.74.3.9.69l4.14,9.33,3.67-9.35c.14-.37.39-.66.85-.66.49,0,.87.39.87.87,0,.13-.05.3-.09.44l-4.64,11.07c-1.04,2.46-2.18,3.36-3.97,3.36-.78,0-1.35-.14-1.95-.35"/>
              <path class="cls-3" d="M371.72,996.96c.94-.41,1.33-.99,1.29-1.88-.48-.12-.9-.48-.9-1.08v-.37c0-.59.46-1.08,1.06-1.08.66,0,1.12.53,1.12,1.26v.44c0,1.4-.3,2.23-.83,2.76-.48.51-1.2.85-1.56.85-.3,0-.48-.19-.48-.46,0-.21.11-.37.3-.44"/>
              <path class="cls-3" d="M376.64,1007.48c-.16-.12-.32-.35-.32-.64,0-.41.35-.76.78-.76.16,0,.32.05.44.13,1.21.83,2.49,1.26,3.77,1.26,1.42,0,2.45-.73,2.45-1.88v-.05c0-1.2-1.4-1.66-2.96-2.09-1.86-.53-3.93-1.17-3.93-3.35v-.05c0-2.04,1.7-3.4,4.05-3.4,1.26,0,2.64.39,3.79,1,.23.14.44.39.44.74,0,.41-.35.76-.78.76-.16,0-.3-.05-.39-.09-1-.58-2.09-.92-3.1-.92-1.4,0-2.29.73-2.29,1.72v.05c0,1.12,1.47,1.56,3.05,2.04,1.84.55,3.81,1.26,3.81,3.4v.05c0,2.25-1.86,3.56-4.22,3.56-1.56,0-3.28-.58-4.57-1.49"/>
              <path class="cls-3" d="M396.3,998.43h-.96c-.44,0-.76-.35-.76-.78s.34-.76.76-.76h.96v-1.04c0-1.35.37-2.38,1.04-3.05.6-.59,1.47-.92,2.55-.92.57,0,1.01.05,1.4.13.35.08.65.37.65.77,0,.46-.39.8-.85.76-.3-.05-.63-.11-.97-.11-1.38,0-2.07.83-2.07,2.52v.97h3.08c.44,0,.78.32.78.75s-.35.76-.78.76h-3.05v9.53c0,.48-.37.9-.87.9s-.9-.41-.9-.9v-9.53h0Z"/>
              <path class="cls-3" d="M414.24,1007.96c0,.48-.37.9-.87.9s-.87-.39-.87-.9v-1.28c-.8,1.28-2.02,2.32-4.07,2.32-2.88,0-4.55-1.94-4.55-4.76v-6.6c0-.51.37-.9.87-.9s.9.39.9.9v6.16c0,2.21,1.19,3.58,3.28,3.58s3.55-1.49,3.55-3.72v-6.02c0-.51.37-.9.87-.9s.87.39.87.9v10.31h0,0Z"/>
              <path class="cls-3" d="M418.84,1005.6v-7.16h-.97c-.41,0-.78-.37-.78-.78,0-.44.37-.78.78-.78h.97v-2.8c0-.48.37-.9.87-.9s.9.41.9.9v2.8h3.08c.44,0,.8.37.8.78s-.37.78-.8.78h-3.08v6.94c0,1.44.8,1.97,2,1.97.62,0,.94-.17,1.08-.17.41,0,.76.35.76.76,0,.32-.21.58-.51.69-.51.2-1.06.32-1.75.32-1.9,0-3.35-.94-3.35-3.36"/>
              <path class="cls-3" d="M437.68,1007.96c0,.48-.37.9-.87.9s-.87-.39-.87-.9v-1.28c-.8,1.28-2.02,2.32-4.07,2.32-2.88,0-4.55-1.94-4.55-4.76v-6.6c0-.51.37-.9.87-.9s.9.39.9.9v6.16c0,2.21,1.19,3.58,3.28,3.58s3.56-1.49,3.56-3.72v-6.02c0-.51.37-.9.87-.9s.87.39.87.9v10.31h0Z"/>
              <path class="cls-3" d="M441.66,997.65c0-.48.39-.9.87-.9s.9.39.9.9v2.23c.87-1.97,2.6-3.17,4.09-3.17.53,0,.87.39.87.9s-.32.82-.78.89c-2.3.28-4.18,2-4.18,5.42v4.05c0,.48-.37.89-.87.89s-.9-.39-.9-.89v-10.31h0Z"/>
              <path class="cls-3" d="M455.66,1009.02c-3.26,0-5.92-2.5-5.92-6.18v-.05c0-3.42,2.41-6.18,5.7-6.18,3.52,0,5.51,2.87,5.51,6.02,0,.48-.39.83-.83.83h-8.59c.26,2.57,2.07,4.02,4.18,4.02,1.47,0,2.55-.58,3.43-1.38.13-.12.3-.21.51-.21.44,0,.78.35.78.76,0,.21-.09.41-.27.58-1.12,1.08-2.46,1.79-4.48,1.79M459.17,1002.15c-.18-2.16-1.42-4.04-3.79-4.04-2.07,0-3.63,1.72-3.86,4.04h7.65Z"/>
              <path class="cls-3" d="M364.09,798.58c0-2.7-2.19-4.89-4.89-4.89s-4.89,2.19-4.89,4.89v17.73c0,2.7,2.19,4.89,4.89,4.89s4.89-2.19,4.89-4.89v-17.73Z"/>
              <path class="cls-3" d="M310.93,834.02c0-2.7-2.19-4.89-4.89-4.89s-4.89,2.19-4.89,4.89,2.19,4.89,4.89,4.89,4.89-2.19,4.89-4.89"/>
              <path class="cls-3" d="M310.93,869.47c0-2.7-2.19-4.89-4.89-4.89s-4.89,2.19-4.89,4.89,2.19,4.89,4.89,4.89,4.89-2.19,4.89-4.89"/>
              <path class="cls-3" d="M323.77,882.3c-2.7,0-4.89,2.19-4.89,4.89s2.19,4.89,4.89,4.89h17.73c2.7,0,4.89-2.19,4.89-4.89s-2.19-4.89-4.89-4.89h-17.73Z"/>
              <path class="cls-2" d="M381.82,904.91c0-2.7-2.19-4.89-4.89-4.89s-4.89,2.19-4.89,4.89,2.19,4.89,4.89,4.89,4.89-2.19,4.89-4.89"/>
              <path class="cls-11" d="M346.37,798.58c0-2.7-2.19-4.89-4.89-4.89s-4.89,2.19-4.89,4.89,2.19,4.89,4.89,4.89,4.89-2.19,4.89-4.89"/>
              <path class="cls-11" d="M381.82,798.58c0-2.7-2.19-4.89-4.89-4.89s-4.89,2.19-4.89,4.89,2.19,4.89,4.89,4.89,4.89-2.19,4.89-4.89"/>
              <path class="cls-11" d="M354.32,904.91c0,2.7,2.19,4.89,4.89,4.89s4.89-2.19,4.89-4.89v-17.73c0-2.7-2.19-4.89-4.89-4.89s-4.89,2.19-4.89,4.89v17.73Z"/>
              <path class="cls-11" d="M318.87,834.02c0,2.7,2.19,4.89,4.89,4.89s4.89-2.19,4.89-4.89v-17.73c0-2.7-2.19-4.89-4.89-4.89s-4.89,2.19-4.89,4.89v17.73Z"/>
              <path class="cls-11" d="M328.66,869.47c0-2.7-2.19-4.89-4.89-4.89s-4.89,2.19-4.89,4.89,2.19,4.89,4.89,4.89,4.89-2.19,4.89-4.89"/>
              <path class="cls-11" d="M399.54,887.19c0-2.7-2.19-4.89-4.89-4.89s-4.89,2.19-4.89,4.89,2.19,4.89,4.89,4.89,4.89-2.19,4.89-4.89"/>
              <path class="cls-15" d="M420.39,899.97v14.22s.54,3.85.74,5.01c2.71.73,6.96,2.07,13.41,5.79-.08-.19-4.79-9.55-7.95-13.35,4.02-.58,8.87-3.76,8.87-3.76,0,0-2.83-4.5-15.06-7.91h0s0,0,0,0Z"/>
              <path class="cls-15" d="M305.92,908.21c37.75,7.63,76.11-21.24,114.46-13.62v19.59c-38.35-7.63-76.71,21.24-114.46,13.62v-19.59Z"/>
            </g>
          </g>
          <g class="cls-14">
            <text class="cls-5" transform="translate(330.33 923.73) rotate(-7.93)"><tspan x="0" y="0">1</tspan></text>
          </g>
          <g class="cls-14">
            <text class="cls-5" transform="translate(337.25 922.81) rotate(-11.69)"><tspan x="0" y="0">0</tspan></text>
          </g>
          <g class="cls-14">
            <text class="cls-5" transform="translate(348.44 920.45) rotate(-14.56)"><tspan x="0" y="0">0</tspan></text>
          </g>
          <g class="cls-14">
            <text class="cls-5" transform="translate(368.32 915.17) rotate(-13.8)"><tspan x="0" y="0">J</tspan></text>
          </g>
          <g class="cls-14">
            <text class="cls-7" transform="translate(376.69 913.1) rotate(-11.65)"><tspan x="0" y="0">a</tspan></text>
          </g>
          <g class="cls-14">
            <text class="cls-5" transform="translate(385.51 911.28) rotate(-8.93)"><tspan x="0" y="0">a</tspan></text>
          </g>
          <g class="cls-14">
            <text class="cls-7" transform="translate(394.44 909.9) rotate(-6.46)"><tspan x="0" y="0">r</tspan></text>
          </g>
          <polygon class="cls-15" points="421.13 919.2 417.57 913.69 420.39 914.19 421.13 919.2"/>
          <g class="cls-16">
            <path class="cls-15" d="M292.43,905.81c6.4,3.68,13.29,5.87,13.49,5.84v16.14c-.44,1.11-.87,2.28-.98,2.54,0,0-9.31-2.37-13.43-7.43,6.73-3.88,8.87-3.76,8.87-3.76,0,0-6.91-10.35-7.95-13.35h0s0,0,0,0Z"/>
          </g>
          <polygon class="cls-15" points="305.93 927.81 304.94 930.35 307.79 928.16 305.93 927.81"/>
          <g class="cls-1">
            <g>
              <path class="cls-10" d="M184.27,116.61s-17.57,28.25-2.68,34.28,33.11-2.03,34.84,21.45-14.66,48.03-14.66,48.03"/>
              <path class="cls-12" d="M209.62,41.84C202.03,15.3,174.72-.08,148.62,7.43c-26.1,7.51-41.17,35.08-33.58,61.62,6.43,22.48,27.03,36.95,49.05,36.28l-5.25,21.61,44.22-12.72-15.86-15.53c19.03-11.13,28.85-34.35,22.42-56.84"/>
              <path class="cls-10" d="M419.22,87.8s-15.32,10.89-8.95,17.33c6.37,6.45,17.57,6.25,13.28,18.91-4.29,12.66-18.18,21.88-18.18,21.88"/>
              <path class="cls-12" d="M449.64,53.93c1.93-15.68-9.22-29.92-24.88-31.84-15.66-1.92-29.93,9.2-31.86,24.87-1.63,13.28,6.13,25.53,18.06,30.13l-7.68,10.19,26.53,3.26-4.98-11.74c12.69-1.58,23.18-11.59,24.81-24.87"/>
              <path class="cls-18" d="M721.44,1022.58s.68,34.71-7.49,39.13c-6.81-1.02-12.25-2.38-12.25-2.38,0,0,11.23-32.67,7.83-37.77,4.76,1.02,11.91,1.02,11.91,1.02"/>
              <path class="cls-18" d="M714.37,973.41s-18.82,20.4-27.15,17.26c-4.32-5.32-7.47-9.89-7.47-9.89,0,0,26.24-10.94,26.63-16.24,2.85,3.9,7.98,8.87,7.98,8.87"/>
              <path class="cls-18" d="M611.75,954.9l-15.31,4.08s17.01,40.49,11.57,45.94c-5.44,5.44,17.7-9.87,17.7-9.87,0,0-16.67-30.96-13.95-40.15"/>
              <path class="cls-18" d="M658.95,920.28s-18.82,20.4-27.15,17.26c-4.32-5.32-7.47-9.89-7.47-9.89,0,0,26.24-10.94,26.63-16.24,2.85,3.9,7.98,8.87,7.98,8.87"/>
              <path class="cls-18" d="M668.81,1014.14s.68,34.71-7.49,39.13c-6.81-1.02-12.25-2.38-12.25-2.38,0,0,11.23-32.67,7.83-37.77,4.76,1.02,11.91,1.02,11.91,1.02"/>
              <path class="cls-18" d="M699.08,893.32s.68,34.71-7.49,39.13c-6.81-1.02-12.25-2.38-12.25-2.38,0,0,11.23-32.67,7.83-37.77,4.76,1.02,11.91,1.02,11.91,1.02"/>
              <path class="cls-18" d="M546.26,929.71s-.84-42.77,9.23-48.22c8.39,1.26,15.1,2.94,15.1,2.94,0,0-13.84,40.25-9.64,46.54-5.87-1.26-14.68-1.26-14.68-1.26"/>
              <path class="cls-18" d="M547.01,982.03s-18.82,20.4-27.15,17.26c-4.32-5.32-7.47-9.89-7.47-9.89,0,0,26.24-10.94,26.63-16.24,2.85,3.9,7.98,8.87,7.98,8.87"/>
              <path class="cls-18" d="M580.86,1042.07s-18.82,20.4-27.15,17.26c-4.32-5.32-7.47-9.89-7.47-9.89,0,0,26.24-10.94,26.63-16.24,2.85,3.9,7.98,8.87,7.98,8.87"/>
              <path class="cls-18" d="M227.97,933.68s-24.21,13.59-31.15,8.03c-2.46-6.4-4.05-11.72-4.05-11.72,0,0,28.34-2.3,30.35-7.22,1.51,4.59,4.85,10.91,4.85,10.91"/>
              <path class="cls-18" d="M136.1,884.37l-15.83-.85s3.67,43.77-3.19,47.27c-6.86,3.5,19.88-3.92,19.88-3.92,0,0-6.29-34.6-.86-42.5"/>
              <path class="cls-18" d="M191.68,866.02s-24.21,13.59-31.15,8.03c-2.46-6.4-4.05-11.72-4.05-11.72,0,0,28.34-2.3,30.35-7.22,1.51,4.59,4.85,10.91,4.85,10.91"/>
              <path class="cls-18" d="M238.19,852.79s-10.08,33.22-19.21,34.9c-6.16-3.07-10.91-6.05-10.91-6.05,0,0,20.77-27.6,19.11-33.5,4.22,2.44,11.01,4.65,11.01,4.65"/>
              <path class="cls-18" d="M81.6,840.17s12.42-40.94,23.68-43.01c7.59,3.79,13.45,7.46,13.45,7.46,0,0-25.6,34.01-23.56,41.29-5.19-3.01-13.57-5.73-13.57-5.73"/>
              <path class="cls-18" d="M66.14,890.16s-24.21,13.59-31.15,8.03c-2.46-6.4-4.05-11.72-4.05-11.72,0,0,28.34-2.3,30.35-7.22,1.51,4.59,4.85,10.91,4.85,10.91"/>
              <path class="cls-18" d="M79.79,957.73s-24.21,13.59-31.15,8.03c-2.46-6.4-4.05-11.72-4.05-11.72,0,0,28.34-2.3,30.35-7.22,1.51,4.59,4.85,10.91,4.85,10.91"/>
            </g>
          </g>
        </g>
      </g>
    </g>
  </g>
</svg>