<?xml version="1.0" encoding="UTF-8"?>
<svg id="Layer_2" data-name="Layer 2" xmlns="http://www.w3.org/2000/svg" xmlns:xlink="http://www.w3.org/1999/xlink" viewBox="0 0 776.78 519.7">
  <defs>
    <style>
      .cls-1 {
        font-family: GothamRounded-Bold, 'Gotham Rounded';
        font-size: 36.28px;
        font-weight: 700;
      }

      .cls-1, .cls-2, .cls-3 {
        fill: #5fc1b5;
      }

      .cls-4 {
        fill: #fff;
      }

      .cls-4, .cls-2 {
        font-family: Verdana, Verdana;
        font-size: 21.16px;
      }

      .cls-5 {
        letter-spacing: 0em;
      }

      .cls-6 {
        letter-spacing: -.03em;
      }

      .cls-7 {
        fill: #eb3780;
      }

      .cls-8 {
        fill: none;
      }

      .cls-9 {
        letter-spacing: -.02em;
      }

      .cls-10 {
        letter-spacing: -.03em;
      }

      .cls-11 {
        clip-path: url(#clippath-1);
      }

      .cls-12 {
        letter-spacing: -.01em;
      }

      .cls-13 {
        fill: #023f88;
      }

      .cls-14 {
        clip-path: url(#clippath);
      }

      .cls-15 {
        letter-spacing: -.02em;
      }
    </style>
    <clipPath id="clippath">
      <rect class="cls-8" width="776.78" height="519.7"/>
    </clipPath>
    <clipPath id="clippath-1">
      <rect class="cls-8" x="-74.2" y="-104.43" width="979.31" height="698.34"/>
    </clipPath>
  </defs>
  <g id="Layer_1-2" data-name="Layer 1">
    <g class="cls-14">
      <rect class="cls-13" width="776.78" height="519.7"/>
      <g class="cls-11">
        <path class="cls-3" d="M514.04-104.43c-46.72,0-84.52,44.06-84.52,98.37s37.8,98.43,84.52,98.43h306.54c46.67,0,84.52-44.12,84.52-98.43s-37.86-98.37-84.52-98.37h-306.54Z"/>
        <path class="cls-7" d="M24.19,397.11c-54.39,0-98.4,44.06-98.4,98.37s44.01,98.43,98.4,98.43,98.4-44.12,98.4-98.43-44.01-98.37-98.4-98.37"/>
      </g>
      <text class="cls-1" transform="translate(94.62 157.33)"><tspan x="0" y="0">Sam de </tspan><tspan class="cls-15" x="147.64" y="0">v</tspan><tspan x="168.32" y="0">os</tspan></text>
      <text class="cls-4" transform="translate(94.62 192.51)"><tspan x="0" y="0">Content Creator</tspan></text>
      <text class="cls-2" transform="translate(94.62 285.41)"><tspan x="0" y="0">+31 56804988</tspan></text>
      <text class="cls-2" transform="translate(94.62 246.43)"><tspan x="0" y="0">D281068@edu.curi</tspan><tspan class="cls-12" x="204.32" y="0">o</tspan><tspan class="cls-5" x="216.91" y="0">.nl</tspan></text>
      <text class="cls-2" transform="translate(94.62 368.61)"><tspan x="0" y="0">ww</tspan><tspan class="cls-6" x="34.63" y="0">w</tspan><tspan x="51.25" y="0">.chemelot.nl</tspan></text>
      <text class="cls-2" transform="translate(94.62 327.01)"><tspan class="cls-9" x="0" y="0">P</tspan><tspan x="12.25" y="0">ostadres: </tspan><tspan class="cls-10" x="120.06" y="0">P</tspan><tspan x="132.29" y="0">ostbus 27 - 6160 MB - Geleen - Nederland</tspan></text>
    </g>
  </g>
</svg>