<?xml version="1.0" encoding="UTF-8"?>
<svg id="Layer_2" data-name="Layer 2" xmlns="http://www.w3.org/2000/svg" viewBox="0 0 468.21 346">
  <defs>
    <style>
      .cls-1 {
        fill: #67bfb5;
      }

      .cls-2 {
        fill: #1d2262;
      }

      .cls-3 {
        fill: #e62a77;
      }

      .cls-4 {
        fill: #262d63;
      }

      .cls-5 {
        fill: #fff;
        font-family: GothamRounded-Bold, 'Gotham Rounded';
        font-size: 24px;
        font-weight: 700;
      }
    </style>
  </defs>
  <g id="Layer_1-2" data-name="Layer 1">
    <path class="cls-1" d="M206.69,35.75c0-4.27-3.46-7.73-7.73-7.73s-7.73,3.46-7.73,7.73,3.47,7.73,7.73,7.73,7.73-3.46,7.73-7.73"/>
    <path class="cls-1" d="M255.01,28.03c-4.27,0-7.73,3.46-7.73,7.73s3.46,7.73,7.73,7.73h28.03c4.27,0,7.73-3.47,7.73-7.73s-3.46-7.73-7.73-7.73h-28.03Z"/>
    <path class="cls-1" d="M142.91,84.08c-4.27,0-7.73,3.46-7.73,7.73s3.46,7.73,7.73,7.73h28.03c4.27,0,7.73-3.47,7.73-7.73s-3.46-7.73-7.73-7.73h-28.03Z"/>
    <path class="cls-1" d="M206.69,175.88c0-4.27-3.46-7.73-7.73-7.73s-7.73,3.46-7.73,7.73,3.47,7.73,7.73,7.73,7.73-3.46,7.73-7.73"/>
    <path class="cls-1" d="M262.74,147.85c0-4.27-3.46-7.73-7.73-7.73s-7.73,3.46-7.73,7.73,3.47,7.73,7.73,7.73,7.73-3.46,7.73-7.73"/>
    <path class="cls-2" d="M185.39,235.23c0-4.27,3.46-7.73,7.73-7.73s7.73,3.46,7.73,7.73v.61c3.56-4.58,8.24-8.74,16.07-8.74,7.12,0,12.51,3.15,15.36,8.64,4.78-5.6,10.47-8.64,17.9-8.64,11.49,0,18.41,6.91,18.41,20.03v28.38c0,4.27-3.46,7.73-7.73,7.73s-7.73-3.46-7.73-7.73v-23.29c0-7.32-3.26-11.08-9.05-11.08s-9.35,3.76-9.35,11.08v23.29c0,4.27-3.46,7.73-7.73,7.73s-7.73-3.46-7.73-7.73v-23.29c0-7.32-3.26-11.08-9.06-11.08s-9.35,3.76-9.35,11.08v23.29c0,4.27-3.46,7.73-7.73,7.73s-7.73-3.46-7.73-7.73v-40.28Z"/>
    <path class="cls-2" d="M343.32,215.5c0-4.27,3.46-7.73,7.73-7.73s7.73,3.46,7.73,7.73v60c0,4.27-3.46,7.73-7.73,7.73s-7.73-3.46-7.73-7.73v-60Z"/>
    <path class="cls-2" d="M0,255.67v-.21c0-15.56,11.9-28.37,28.58-28.37,8.24,0,14.04,2.24,18.61,6.1,1.02.82,2.44,2.65,2.44,5.29,0,3.86-3.15,6.91-7.02,6.91-2.04,0-3.56-.82-4.48-1.52-2.74-2.14-5.59-3.46-9.66-3.46-7.73,0-13.22,6.82-13.22,14.85v.2c0,8.34,5.39,15.05,13.83,15.05,4.07,0,7.22-1.42,10.17-3.76.82-.61,2.34-1.42,4.17-1.42,3.67,0,6.51,2.95,6.51,6.61,0,2.03-.92,3.66-2.24,4.88-4.57,4.17-10.38,7.02-19.32,7.02-16.38,0-28.38-12.61-28.38-28.17"/>
    <path class="cls-2" d="M60.71,215.5c0-4.27,3.46-7.73,7.73-7.73s7.73,3.46,7.73,7.73v20.34c3.56-4.57,8.13-8.74,15.97-8.74,11.7,0,18.51,7.73,18.51,20.24v28.17c0,4.27-3.46,7.73-7.73,7.73s-7.72-3.46-7.72-7.73v-23.29c0-7.32-3.46-11.09-9.36-11.09s-9.66,3.76-9.66,11.09v23.29c0,4.27-3.46,7.73-7.73,7.73s-7.73-3.46-7.73-7.73v-60Z"/>
    <path class="cls-2" d="M149.9,283.84c-16.37,0-28.47-11.49-28.47-28.17v-.2c0-15.57,11.09-28.38,26.95-28.38,18.21,0,26.24,14.95,26.24,26.24,0,4.48-3.15,7.43-7.22,7.43h-30.61c1.53,7.02,6.41,10.67,13.32,10.67,4.27,0,7.83-1.32,10.99-3.66,1.12-.82,2.13-1.22,3.76-1.22,3.46,0,6,2.65,6,6.1,0,2.03-.91,3.56-2.03,4.57-4.78,4.07-10.99,6.61-18.92,6.61M159.87,251.1c-.92-6.92-4.99-11.6-11.49-11.6s-10.58,4.58-11.8,11.6h23.29Z"/>
    <path class="cls-2" d="M307.83,283.84c-16.37,0-28.47-11.49-28.47-28.17v-.2c0-15.57,11.09-28.38,26.95-28.38,18.21,0,26.24,14.95,26.24,26.24,0,4.48-3.15,7.43-7.22,7.43h-30.61c1.53,7.02,6.41,10.67,13.32,10.67,4.27,0,7.83-1.32,10.99-3.66,1.12-.82,2.13-1.22,3.76-1.22,3.46,0,6,2.65,6,6.1,0,2.03-.91,3.56-2.03,4.57-4.78,4.07-10.99,6.61-18.92,6.61M317.8,251.1c-.92-6.92-4.99-11.6-11.49-11.6s-10.58,4.58-11.8,11.6h23.29Z"/>
    <path class="cls-2" d="M369.56,255.67v-.21c0-15.66,12.61-28.37,29.59-28.37s29.39,12.51,29.39,28.17v.2c0,15.66-12.61,28.38-29.6,28.38s-29.39-12.51-29.39-28.17M413.29,255.67v-.21c0-8.04-5.8-15.05-14.34-15.05s-14.13,6.82-14.13,14.85v.2c0,8.04,5.8,15.05,14.33,15.05s14.14-6.81,14.14-14.85"/>
    <path class="cls-2" d="M439.32,215.5c0-4.27,3.46-7.73,7.73-7.73s7.73,3.46,7.73,7.73v11.62h6.82c3.66,0,6.61,2.95,6.61,6.62s-2.95,6.61-6.61,6.61h-6.82v23.97c0,3.56,1.53,5.29,4.98,5.29.51,0,1.53-.1,1.83-.1,3.46,0,6.41,2.85,6.41,6.41,0,2.75-1.83,4.98-3.96,5.8-2.85,1.12-5.49,1.53-8.85,1.53-9.46,0-15.86-3.76-15.86-16.38v-51.36Z"/>
    <path class="cls-2" d="M83.08,323.77h-1.53c-.69,0-1.2-.55-1.2-1.24s.54-1.2,1.2-1.2h1.53v-1.64c0-2.14.58-3.77,1.63-4.83.95-.94,2.33-1.45,4.04-1.45.9,0,1.6.07,2.22.21.54.12,1.02.59,1.02,1.21,0,.72-.62,1.27-1.34,1.2-.48-.07-.99-.18-1.53-.18-2.18,0-3.27,1.31-3.27,3.99v1.53h4.87c.69,0,1.24.51,1.24,1.19s-.54,1.21-1.24,1.21h-4.83v15.07c0,.76-.59,1.42-1.38,1.42s-1.42-.65-1.42-1.42v-15.07Z"/>
    <path class="cls-2" d="M110.54,330.78v-.08c0-4.03-3.01-7.33-6.97-7.33s-6.86,3.31-6.86,7.27v.07c0,4.04,2.98,7.31,6.94,7.31s6.9-3.27,6.9-7.23M93.83,330.78v-.08c0-5.3,4.15-9.8,9.81-9.8s9.77,4.43,9.77,9.74v.07c0,5.31-4.17,9.81-9.84,9.81s-9.74-4.43-9.74-9.74"/>
    <path class="cls-2" d="M118.48,322.53c0-.76.62-1.42,1.38-1.42.8,0,1.42.62,1.42,1.42v3.52c1.38-3.12,4.11-5.01,6.47-5.01.83,0,1.38.62,1.38,1.42,0,.76-.51,1.3-1.24,1.41-3.63.44-6.61,3.16-6.61,8.57v6.4c0,.76-.58,1.41-1.38,1.41s-1.42-.62-1.42-1.41v-16.31Z"/>
    <path class="cls-2" d="M145.08,335.1v-11.33h-1.53c-.65,0-1.24-.59-1.24-1.24,0-.69.58-1.24,1.24-1.24h1.53v-4.43c0-.76.58-1.42,1.38-1.42.76,0,1.41.65,1.41,1.42v4.43h4.87c.69,0,1.27.58,1.27,1.24,0,.69-.58,1.24-1.27,1.24h-4.87v10.97c0,2.28,1.27,3.12,3.16,3.12.98,0,1.49-.26,1.7-.26.66,0,1.2.55,1.2,1.2,0,.51-.33.91-.8,1.09-.8.32-1.66.51-2.76.51-3.02,0-5.3-1.49-5.3-5.31"/>
    <path class="cls-2" d="M173.78,330.78v-.08c0-4.03-3.01-7.33-6.97-7.33s-6.86,3.31-6.86,7.27v.07c0,4.04,2.98,7.31,6.94,7.31s6.9-3.27,6.9-7.23M157.07,330.78v-.08c0-5.3,4.14-9.8,9.81-9.8s9.77,4.43,9.77,9.74v.07c0,5.31-4.17,9.81-9.84,9.81s-9.74-4.43-9.74-9.74"/>
    <path class="cls-2" d="M183.5,330.63v.07c0,4.43,3.09,7.27,6.61,7.27s6.79-2.94,6.79-7.27v-.07c0-4.33-3.3-7.23-6.79-7.23s-6.61,2.69-6.61,7.23M199.59,338.84c0,.8-.62,1.42-1.38,1.42s-1.42-.62-1.42-1.42v-2.54c-1.53,2.25-3.74,4.17-7.2,4.17-4.5,0-8.97-3.56-8.97-9.74v-.07c0-6.14,4.47-9.77,8.97-9.77,3.49,0,5.75,1.89,7.2,3.99v-10.1c0-.8.58-1.41,1.38-1.41s1.42.62,1.42,1.41v24.05Z"/>
    <path class="cls-2" d="M218.27,333.18v-1.82c-1.38-.4-3.23-.8-5.52-.8-3.53,0-5.49,1.53-5.49,3.89v.07c0,2.36,2.18,3.74,4.73,3.74,3.45,0,6.28-2.1,6.28-5.08M204.43,334.63v-.07c0-3.96,3.27-6.06,8.03-6.06,2.4,0,4.11.32,5.78.79v-.65c0-3.38-2.07-5.12-5.6-5.12-1.89,0-3.49.44-4.87,1.05-.18.07-.37.11-.51.11-.65,0-1.24-.55-1.24-1.21,0-.58.41-1.01.77-1.16,1.85-.8,3.74-1.27,6.14-1.27,2.66,0,4.69.68,6.07,2.07,1.27,1.27,1.92,3.09,1.92,5.49v10.28c0,.8-.59,1.38-1.34,1.38-.8,0-1.34-.58-1.34-1.31v-1.71c-1.31,1.71-3.49,3.24-6.8,3.24-3.49,0-7.01-2-7.01-5.85"/>
    <path class="cls-2" d="M225.91,345.45c-.43-.19-.87-.55-.87-1.2,0-.69.58-1.2,1.2-1.2.25,0,.47.07.69.14.55.19,1.09.33,2.04.33,1.74,0,2.76-1.05,3.78-3.34l.15-.29-7.85-16.64c-.11-.25-.19-.51-.19-.76,0-.77.62-1.38,1.42-1.38s1.17.47,1.42,1.09l6.54,14.75,5.81-14.79c.22-.58.62-1.05,1.34-1.05.77,0,1.38.62,1.38,1.38,0,.21-.07.47-.14.69l-7.34,17.51c-1.64,3.89-3.45,5.31-6.28,5.31-1.24,0-2.14-.22-3.09-.55"/>
    <path class="cls-2" d="M246.77,321.44c1.49-.65,2.1-1.56,2.04-2.98-.76-.19-1.42-.76-1.42-1.71v-.58c0-.94.72-1.71,1.67-1.71,1.05,0,1.78.84,1.78,2v.69c0,2.22-.47,3.53-1.31,4.36-.76.8-1.89,1.35-2.47,1.35-.47,0-.76-.3-.76-.73,0-.33.18-.58.47-.69"/>
    <path class="cls-2" d="M254.55,338.08c-.25-.19-.51-.55-.51-1.02,0-.65.55-1.2,1.24-1.2.25,0,.51.07.69.21,1.92,1.31,3.93,2,5.96,2,2.25,0,3.88-1.16,3.88-2.98v-.07c0-1.89-2.21-2.62-4.68-3.31-2.94-.83-6.22-1.85-6.22-5.3v-.07c0-3.23,2.69-5.38,6.4-5.38,2,0,4.18.62,6,1.59.36.22.69.62.69,1.17,0,.65-.55,1.2-1.24,1.2-.25,0-.47-.08-.62-.15-1.59-.91-3.31-1.45-4.9-1.45-2.21,0-3.63,1.16-3.63,2.72v.07c0,1.78,2.32,2.47,4.83,3.23,2.91.87,6.03,2,6.03,5.38v.07c0,3.56-2.94,5.63-6.68,5.63-2.47,0-5.19-.91-7.23-2.36"/>
    <path class="cls-2" d="M285.63,323.77h-1.52c-.69,0-1.2-.55-1.2-1.24s.54-1.2,1.2-1.2h1.52v-1.64c0-2.14.58-3.77,1.64-4.83.95-.94,2.32-1.45,4.03-1.45.9,0,1.6.07,2.21.21.55.12,1.02.59,1.02,1.21,0,.72-.62,1.27-1.34,1.2-.47-.07-.99-.18-1.53-.18-2.18,0-3.27,1.31-3.27,3.99v1.53h4.87c.69,0,1.24.51,1.24,1.19s-.55,1.21-1.24,1.21h-4.83v15.07c0,.76-.58,1.42-1.38,1.42s-1.42-.65-1.42-1.42v-15.07Z"/>
    <path class="cls-2" d="M314.01,338.84c0,.76-.58,1.42-1.38,1.42s-1.38-.62-1.38-1.42v-2.03c-1.27,2.03-3.19,3.67-6.43,3.67-4.55,0-7.19-3.06-7.19-7.52v-10.43c0-.8.58-1.42,1.38-1.42s1.42.62,1.42,1.42v9.74c0,3.49,1.88,5.66,5.19,5.66s5.62-2.36,5.62-5.88v-9.52c0-.8.58-1.42,1.38-1.42s1.38.62,1.38,1.42v16.31Z"/>
    <path class="cls-2" d="M321.28,335.1v-11.33h-1.53c-.65,0-1.23-.59-1.23-1.24,0-.69.58-1.24,1.23-1.24h1.53v-4.43c0-.76.58-1.42,1.38-1.42s1.42.65,1.42,1.42v4.43h4.87c.69,0,1.27.58,1.27,1.24,0,.69-.58,1.24-1.27,1.24h-4.87v10.97c0,2.28,1.27,3.12,3.16,3.12.98,0,1.48-.26,1.7-.26.65,0,1.2.55,1.2,1.2,0,.51-.33.91-.8,1.09-.8.32-1.67.51-2.76.51-3.01,0-5.3-1.49-5.3-5.31"/>
    <path class="cls-2" d="M351.08,338.84c0,.76-.58,1.42-1.38,1.42s-1.38-.62-1.38-1.42v-2.03c-1.27,2.03-3.19,3.67-6.43,3.67-4.55,0-7.19-3.06-7.19-7.52v-10.43c0-.8.58-1.42,1.38-1.42s1.42.62,1.42,1.42v9.74c0,3.49,1.88,5.66,5.19,5.66s5.63-2.36,5.63-5.88v-9.52c0-.8.58-1.42,1.38-1.42s1.38.62,1.38,1.42v16.31Z"/>
    <path class="cls-2" d="M357.37,322.53c0-.76.62-1.42,1.38-1.42s1.42.62,1.42,1.42v3.52c1.38-3.12,4.11-5.01,6.47-5.01.83,0,1.38.62,1.38,1.42,0,.76-.51,1.3-1.24,1.41-3.63.44-6.61,3.16-6.61,8.57v6.4c0,.76-.59,1.41-1.38,1.41s-1.42-.62-1.42-1.41v-16.31Z"/>
    <path class="cls-2" d="M385.06,329.65c-.29-3.41-2.25-6.39-5.99-6.39-3.27,0-5.74,2.72-6.11,6.39h12.1ZM379.5,340.51c-5.16,0-9.37-3.96-9.37-9.77v-.07c0-5.41,3.82-9.77,9.01-9.77,5.56,0,8.72,4.54,8.72,9.52,0,.76-.62,1.31-1.31,1.31h-13.59c.41,4.07,3.27,6.36,6.61,6.36,2.33,0,4.04-.91,5.42-2.18.21-.19.47-.33.8-.33.69,0,1.24.55,1.24,1.2,0,.33-.14.65-.43.91-1.78,1.71-3.89,2.83-7.08,2.83"/>
    <path class="cls-2" d="M234.71,7.73c0-4.27-3.46-7.73-7.73-7.73s-7.73,3.46-7.73,7.73v28.03c0,4.27,3.47,7.73,7.73,7.73s7.73-3.46,7.73-7.73V7.73Z"/>
    <path class="cls-2" d="M150.64,63.78c0-4.27-3.46-7.73-7.73-7.73s-7.73,3.46-7.73,7.73,3.47,7.73,7.73,7.73,7.73-3.46,7.73-7.73"/>
    <path class="cls-2" d="M150.64,119.83c0-4.27-3.46-7.73-7.73-7.73s-7.73,3.46-7.73,7.73,3.47,7.73,7.73,7.73,7.73-3.46,7.73-7.73"/>
    <path class="cls-2" d="M170.94,140.12c-4.27,0-7.73,3.46-7.73,7.73s3.46,7.73,7.73,7.73h28.03c4.27,0,7.73-3.47,7.73-7.73s-3.46-7.73-7.73-7.73h-28.03Z"/>
    <path class="cls-4" d="M262.74,175.88c0-4.27-3.46-7.73-7.73-7.73s-7.73,3.46-7.73,7.73,3.47,7.73,7.73,7.73,7.73-3.46,7.73-7.73"/>
    <path class="cls-3" d="M206.69,7.73c0-4.27-3.46-7.73-7.73-7.73s-7.73,3.46-7.73,7.73,3.47,7.73,7.73,7.73,7.73-3.46,7.73-7.73"/>
    <path class="cls-3" d="M262.74,7.73c0-4.27-3.46-7.73-7.73-7.73s-7.73,3.46-7.73,7.73,3.47,7.73,7.73,7.73,7.73-3.46,7.73-7.73"/>
    <path class="cls-3" d="M219.25,175.88c0,4.27,3.46,7.73,7.73,7.73s7.73-3.46,7.73-7.73v-28.03c0-4.27-3.47-7.73-7.73-7.73s-7.73,3.46-7.73,7.73v28.03Z"/>
    <path class="cls-3" d="M163.2,63.78c0,4.27,3.46,7.73,7.73,7.73s7.73-3.46,7.73-7.73v-28.03c0-4.27-3.47-7.73-7.73-7.73s-7.73,3.46-7.73,7.73v28.03Z"/>
    <path class="cls-3" d="M178.67,119.83c0-4.27-3.46-7.73-7.73-7.73s-7.73,3.46-7.73,7.73,3.47,7.73,7.73,7.73,7.73-3.46,7.73-7.73"/>
    <path class="cls-3" d="M290.76,147.85c0-4.27-3.46-7.73-7.73-7.73s-7.73,3.46-7.73,7.73,3.47,7.73,7.73,7.73,7.73-3.46,7.73-7.73"/>
    <g>
      <path class="cls-2" d="M323.73,168.04v22.49s.86,6.09,1.17,7.92c4.29,1.15,11.01,3.27,21.2,9.15-.12-.3-7.57-15.1-12.58-21.11,6.35-.91,14.03-5.94,14.03-5.94,0,0-4.47-7.12-23.82-12.5Z"/>
      <path class="cls-2" d="M142.72,181.08c59.7,12.06,120.35-33.59,181-21.53v30.98c-60.65-12.06-121.3,33.59-181,21.53v-30.98Z"/>
      <g>
        <text class="cls-5" transform="translate(181.32 205.62) rotate(-7.93)"><tspan x="0" y="0">1</tspan></text>
        <text class="cls-5" transform="translate(192.26 204.17) rotate(-11.69)"><tspan x="0" y="0">0</tspan></text>
        <text class="cls-5" transform="translate(209.96 200.43) rotate(-14.56)"><tspan x="0" y="0">0</tspan></text>
        <text class="cls-5" transform="translate(227.11 195.92) rotate(-15.07)"><tspan x="0" y="0"> </tspan></text>
        <text class="cls-5" transform="translate(234.27 193.99) rotate(-14.8)"><tspan x="0" y="0"> </tspan></text>
        <text class="cls-5" transform="translate(241.39 192.07) rotate(-13.8)"><tspan x="0" y="0">J</tspan></text>
        <text class="cls-5" transform="translate(254.63 188.8) rotate(-11.65)"><tspan x="0" y="0">a</tspan></text>
        <text class="cls-5" transform="translate(268.58 185.92) rotate(-8.93)"><tspan x="0" y="0">a</tspan></text>
        <text class="cls-5" transform="translate(282.7 183.75) rotate(-6.46)"><tspan x="0" y="0">r</tspan></text>
      </g>
      <polygon class="cls-2" points="324.9 198.45 319.27 189.74 323.73 190.52 324.9 198.45"/>
      <path class="cls-2" d="M121.38,177.28c10.12,5.82,21.02,9.29,21.34,9.24,0,.76,0,25.53,0,25.53-.7,1.76-1.37,3.61-1.55,4.02,0,0-14.72-3.75-21.24-11.75,10.64-6.13,14.03-5.94,14.03-5.94,0,0-10.93-16.36-12.58-21.11Z"/>
    </g>
    <polygon class="cls-4" points="142.7 212.06 141.14 216.08 145.65 212.61 142.7 212.06"/>
  </g>
</svg>