<?xml version="1.0" encoding="UTF-8"?>
<svg id="Layer_1" data-name="Layer 1" xmlns="http://www.w3.org/2000/svg" viewBox="0 0 6814.61 1679.61">
  <defs>
    <style>
      .cls-1 {
        fill: #fff;
      }

      .cls-2 {
        fill: #38bced;
      }
    </style>
  </defs>
  <circle class="cls-1" cx="836.36" cy="846.42" r="663.62"/>
  <path d="M1322.43,360.36c-129.83-129.83-302.45-201.34-486.06-201.34-379.03,0-687.4,308.37-687.4,687.4,0,183.61,71.5,356.23,201.34,486.06,129.83,129.83,302.45,201.34,486.06,201.34s356.23-71.5,486.06-201.34c129.83-129.83,201.34-302.45,201.34-486.06s-71.5-356.23-201.34-486.06ZM836.36,1510.04c-177.26,0-343.9-69.03-469.25-194.37-125.34-125.34-194.37-291.99-194.37-469.25s69.03-343.9,194.37-469.25c125.34-125.34,291.99-194.37,469.25-194.37s343.9,69.03,469.25,194.37c125.34,125.34,194.37,291.99,194.37,469.25,0,365.92-297.7,663.62-663.62,663.62Z"/>
  <path class="cls-2" d="M836.36,1226.7c210.02,0,380.28-170.26,380.28-380.28h-380.28v380.28Z"/>
  <path class="cls-2" d="M456.08,846.42h380.28v-380.28c-210.02,0-380.28,170.26-380.28,380.28Z"/>
  <path d="M836.36,210.15c-351.4,0-636.27,284.87-636.27,636.27s284.87,636.27,636.27,636.27,636.27-284.87,636.27-636.27S1187.76,210.15,836.36,210.15ZM743.37,244.89h50.37l45.59,119.29,45.58-119.29h50.38v167.48h-33.53v-116.94l-44.12,116.94h-36.63l-44.12-116.94v116.94h-33.53v-167.48ZM321.01,520.4l81.72-97.39c16.91-20.16,40.56-36.25,63.03-17.4,6.94,5.83,9.88,7.75,18.3,23.11,1.98,5.45,3.51,15.33-.23,25,19.55-12.12,40.38-8.17,53.85,4.92,20.7,20.12,17.66,43.39-2.03,66.85l-86.18,102.7-128.47-107.8ZM836.36,1252.85c-224.46,0-406.43-181.97-406.43-406.43s181.97-406.43,406.43-406.43,406.43,181.97,406.43,406.43-181.97,406.43-406.43,406.43ZM1215.06,631.62l-30.41-37.86,60.59-88.59-.36-.44-99.25,40.84-30.71-37.62,105.07-135.15,25.91,32-65.8,86.07,100.54-43.17,27.8,34.33-63.13,89.37,97.87-46.46,25.91,32-154.04,74.67ZM447.39,447.55c-8.26-6.93-21.12-7.21-26.8-.43l-49.08,58.5,30.37,25.48,48.53-57.83c6.1-7.27,6.08-18.08-3.01-25.71ZM506.93,515.34c6.8-8.1,5.81-20.71-4.1-29.03-8.76-7.35-21.75-5.33-27.57,1.61l-51.58,61.47,32.08,26.92,51.17-60.98Z"/>
  <rect x="167.86" y="-.77" width="1359" height="120.51"/>
  <rect x="-607.6" y="802.97" width="1340.68" height="124.72" transform="translate(-802.59 928.07) rotate(-90)"/>
  <circle class="cls-1" cx="6020.36" cy="846.42" r="663.62"/>
  <rect x="5351.86" y="-.77" width="1359" height="120.51"/>
  <rect x="4576.4" y="802.97" width="1340.68" height="124.72" transform="translate(4381.41 6112.07) rotate(-90)"/>
  <path d="M4749.43,360.36c-129.83-129.83-302.45-201.34-486.06-201.34-379.03,0-687.4,308.37-687.4,687.4,0,183.61,71.5,356.23,201.34,486.06,129.83,129.83,302.45,201.34,486.06,201.34s356.23-71.5,486.06-201.34c129.83-129.83,201.34-302.45,201.34-486.06s-71.5-356.23-201.34-486.06ZM4263.36,1510.04c-177.26,0-343.9-69.03-469.25-194.37-125.34-125.34-194.37-291.99-194.37-469.25s69.03-343.9,194.37-469.25c125.34-125.34,291.99-194.37,469.25-194.37s343.9,69.03,469.25,194.37c125.34,125.34,194.37,291.99,194.37,469.25,0,365.92-297.7,663.62-663.62,663.62Z"/>
  <path d="M4263.36,210.15c-351.4,0-636.27,284.87-636.27,636.27s284.87,636.27,636.27,636.27,636.27-284.87,636.27-636.27-284.87-636.27-636.27-636.27ZM4170.37,244.89h50.37l45.59,119.29,45.58-119.29h50.38v167.48h-33.53v-116.94l-44.12,116.94h-36.63l-44.12-116.94v116.94h-33.53v-167.48ZM3748.01,520.4l81.72-97.39c16.91-20.16,40.56-36.25,63.03-17.4,6.94,5.83,9.88,7.75,18.3,23.11,1.98,5.45,3.51,15.33-.23,25,19.55-12.12,40.38-8.17,53.85,4.92,20.7,20.12,17.66,43.39-2.03,66.85l-86.18,102.7-128.47-107.8ZM4263.36,1252.85c-224.46,0-406.43-181.97-406.43-406.43s181.97-406.43,406.43-406.43,406.43,181.97,406.43,406.43-181.97,406.43-406.43,406.43ZM4642.06,631.62l-30.41-37.86,60.59-88.59-.36-.44-99.25,40.84-30.71-37.62,105.07-135.15,25.91,32-65.8,86.07,100.54-43.17,27.8,34.33-63.13,89.37,97.87-46.46,25.91,32-154.04,74.67ZM3874.39,447.55c-8.26-6.93-21.12-7.21-26.8-.43l-49.08,58.5,30.37,25.48,48.53-57.83c6.1-7.27,6.08-18.08-3.01-25.71ZM3933.93,515.34c6.8-8.1,5.81-20.71-4.1-29.03-8.76-7.35-21.75-5.33-27.57,1.61l-51.58,61.47,32.08,26.92,51.17-60.98Z"/>
  <rect x="3594.86" y="-.77" width="1359" height="120.51"/>
  <rect x="2819.4" y="802.97" width="1340.68" height="124.72" transform="translate(2624.41 4355.07) rotate(-90)"/>
  <path class="cls-2" d="M2625.36,1226.7c210.02,0,380.28-170.26,380.28-380.28h-380.28v380.28Z"/>
  <path class="cls-2" d="M2245.08,846.42h380.28v-380.28c-210.02,0-380.28,170.26-380.28,380.28Z"/>
  <rect x="1956.86" y="-.77" width="1359" height="120.51"/>
  <rect x="1181.4" y="802.97" width="1340.68" height="124.72" transform="translate(986.41 2717.07) rotate(-90)"/>
</svg>