<?xml version="1.0" encoding="UTF-8"?>
<svg id="Laag_1" data-name="Laag 1" xmlns="http://www.w3.org/2000/svg" viewBox="0 0 1966.98 509.89">
  <defs>
    <style>
      .cls-1 {
        fill: #272b5d;
      }

      .cls-2 {
        fill: #67c0b6;
      }

      .cls-3 {
        fill: #1d1d1b;
        stroke: #fff;
        stroke-miterlimit: 10;
      }

      .cls-4 {
        fill: #e62a77;
      }

      .cls-5 {
        fill: #e72a77;
      }
    </style>
  </defs>
  <path class="cls-2" d="M236.26,117.75c0-4.27-3.46-7.73-7.73-7.73s-7.73,3.46-7.73,7.73,3.47,7.73,7.73,7.73,7.73-3.46,7.73-7.73"/>
  <path class="cls-2" d="M284.58,110.03c-4.27,0-7.73,3.46-7.73,7.73s3.46,7.73,7.73,7.73h28.03c4.27,0,7.73-3.47,7.73-7.73s-3.46-7.73-7.73-7.73h-28.03Z"/>
  <path class="cls-2" d="M172.48,166.08c-4.27,0-7.73,3.46-7.73,7.73s3.46,7.73,7.73,7.73h28.03c4.27,0,7.73-3.47,7.73-7.73s-3.46-7.73-7.73-7.73h-28.03Z"/>
  <path class="cls-2" d="M236.27,257.88c0-4.27-3.46-7.73-7.73-7.73s-7.73,3.46-7.73,7.73,3.47,7.73,7.73,7.73,7.73-3.46,7.73-7.73"/>
  <path class="cls-2" d="M292.31,229.85c0-4.27-3.46-7.73-7.73-7.73s-7.73,3.46-7.73,7.73,3.47,7.73,7.73,7.73,7.73-3.46,7.73-7.73"/>
  <path class="cls-1" d="M214.96,317.23c0-4.27,3.46-7.73,7.73-7.73s7.73,3.46,7.73,7.73v.61c3.56-4.58,8.24-8.74,16.07-8.74,7.12,0,12.51,3.15,15.36,8.64,4.78-5.6,10.47-8.64,17.9-8.64,11.49,0,18.41,6.91,18.41,20.03v28.38c0,4.27-3.46,7.73-7.73,7.73s-7.73-3.46-7.73-7.73v-23.29c0-7.32-3.26-11.08-9.05-11.08s-9.35,3.76-9.35,11.08v23.29c0,4.27-3.46,7.73-7.73,7.73s-7.73-3.46-7.73-7.73v-23.29c0-7.32-3.26-11.08-9.06-11.08s-9.35,3.76-9.35,11.08v23.29c0,4.27-3.46,7.73-7.73,7.73s-7.73-3.46-7.73-7.73v-40.28Z"/>
  <path class="cls-1" d="M372.9,297.5c0-4.27,3.46-7.73,7.73-7.73s7.73,3.46,7.73,7.73v60c0,4.27-3.46,7.73-7.73,7.73s-7.73-3.46-7.73-7.73v-60Z"/>
  <path class="cls-1" d="M29.57,337.67v-.21c0-15.56,11.9-28.37,28.58-28.37,8.24,0,14.04,2.24,18.61,6.1,1.02.82,2.44,2.65,2.44,5.29,0,3.86-3.15,6.91-7.02,6.91-2.04,0-3.56-.82-4.48-1.52-2.74-2.14-5.59-3.46-9.66-3.46-7.73,0-13.22,6.82-13.22,14.85v.2c0,8.34,5.39,15.05,13.83,15.05,4.07,0,7.22-1.42,10.17-3.76.82-.61,2.34-1.42,4.17-1.42,3.67,0,6.51,2.95,6.51,6.61,0,2.03-.92,3.66-2.24,4.88-4.57,4.17-10.38,7.02-19.32,7.02-16.38,0-28.38-12.61-28.38-28.17"/>
  <path class="cls-1" d="M90.29,297.5c0-4.27,3.46-7.73,7.73-7.73s7.73,3.46,7.73,7.73v20.34c3.56-4.57,8.13-8.74,15.97-8.74,11.7,0,18.51,7.73,18.51,20.24v28.17c0,4.27-3.46,7.73-7.73,7.73s-7.72-3.46-7.72-7.73v-23.29c0-7.32-3.46-11.09-9.36-11.09s-9.66,3.76-9.66,11.09v23.29c0,4.27-3.46,7.73-7.73,7.73s-7.73-3.46-7.73-7.73v-60Z"/>
  <path class="cls-1" d="M179.47,365.84c-16.37,0-28.47-11.49-28.47-28.17v-.2c0-15.57,11.09-28.38,26.95-28.38,18.21,0,26.24,14.95,26.24,26.24,0,4.48-3.15,7.43-7.22,7.43h-30.61c1.53,7.02,6.41,10.67,13.32,10.67,4.27,0,7.83-1.32,10.99-3.66,1.12-.82,2.13-1.22,3.76-1.22,3.46,0,6,2.65,6,6.1,0,2.03-.91,3.56-2.03,4.57-4.78,4.07-10.99,6.61-18.92,6.61M189.44,333.1c-.92-6.92-4.99-11.6-11.49-11.6s-10.58,4.58-11.8,11.6h23.29Z"/>
  <path class="cls-1" d="M337.41,365.84c-16.37,0-28.47-11.49-28.47-28.17v-.2c0-15.57,11.09-28.38,26.95-28.38,18.21,0,26.24,14.95,26.24,26.24,0,4.48-3.15,7.43-7.22,7.43h-30.61c1.53,7.02,6.41,10.67,13.32,10.67,4.27,0,7.83-1.32,10.99-3.66,1.12-.82,2.13-1.22,3.76-1.22,3.46,0,6,2.65,6,6.1,0,2.03-.91,3.56-2.03,4.57-4.78,4.07-10.99,6.61-18.92,6.61M347.38,333.1c-.92-6.92-4.99-11.6-11.49-11.6s-10.58,4.58-11.8,11.6h23.29Z"/>
  <path class="cls-1" d="M399.13,337.67v-.21c0-15.66,12.61-28.37,29.59-28.37s29.39,12.51,29.39,28.17v.2c0,15.66-12.61,28.38-29.6,28.38s-29.39-12.51-29.39-28.17M442.87,337.67v-.21c0-8.04-5.8-15.05-14.34-15.05s-14.13,6.82-14.13,14.85v.2c0,8.04,5.8,15.05,14.33,15.05s14.14-6.81,14.14-14.85"/>
  <path class="cls-1" d="M468.9,297.5c0-4.27,3.46-7.73,7.73-7.73s7.73,3.46,7.73,7.73v11.62h6.82c3.66,0,6.61,2.95,6.61,6.62s-2.95,6.61-6.61,6.61h-6.82v23.97c0,3.56,1.53,5.29,4.98,5.29.51,0,1.53-.1,1.83-.1,3.46,0,6.41,2.85,6.41,6.41,0,2.75-1.83,4.98-3.96,5.8-2.85,1.12-5.49,1.53-8.85,1.53-9.46,0-15.86-3.76-15.86-16.38v-51.36Z"/>
  <path class="cls-1" d="M112.65,405.77h-1.53c-.69,0-1.2-.55-1.2-1.24s.54-1.2,1.2-1.2h1.53v-1.64c0-2.14.58-3.77,1.63-4.83.95-.94,2.33-1.45,4.04-1.45.9,0,1.6.07,2.22.21.54.12,1.02.59,1.02,1.21,0,.72-.62,1.27-1.34,1.2-.48-.07-.99-.18-1.53-.18-2.18,0-3.27,1.31-3.27,3.99v1.53h4.87c.69,0,1.24.51,1.24,1.19s-.54,1.21-1.24,1.21h-4.83v15.07c0,.76-.59,1.42-1.38,1.42s-1.42-.65-1.42-1.42v-15.07Z"/>
  <path class="cls-1" d="M140.12,412.78v-.08c0-4.03-3.01-7.33-6.97-7.33s-6.86,3.31-6.86,7.27v.07c0,4.04,2.98,7.31,6.94,7.31s6.9-3.27,6.9-7.23M123.41,412.78v-.08c0-5.3,4.15-9.8,9.81-9.8s9.77,4.43,9.77,9.74v.07c0,5.31-4.17,9.81-9.84,9.81s-9.74-4.43-9.74-9.74"/>
  <path class="cls-1" d="M148.05,404.53c0-.76.62-1.42,1.38-1.42.8,0,1.42.62,1.42,1.42v3.52c1.38-3.12,4.11-5.01,6.47-5.01.83,0,1.38.62,1.38,1.42,0,.76-.51,1.3-1.24,1.41-3.63.44-6.61,3.16-6.61,8.57v6.4c0,.76-.58,1.41-1.38,1.41s-1.42-.62-1.42-1.41v-16.31Z"/>
  <path class="cls-1" d="M174.65,417.1v-11.33h-1.53c-.65,0-1.24-.59-1.24-1.24,0-.69.58-1.24,1.24-1.24h1.53v-4.43c0-.76.58-1.42,1.38-1.42.76,0,1.41.65,1.41,1.42v4.43h4.87c.69,0,1.27.58,1.27,1.24,0,.69-.58,1.24-1.27,1.24h-4.87v10.97c0,2.28,1.27,3.12,3.16,3.12.98,0,1.49-.26,1.7-.26.66,0,1.2.55,1.2,1.2,0,.51-.33.91-.8,1.09-.8.32-1.66.51-2.76.51-3.02,0-5.3-1.49-5.3-5.31"/>
  <path class="cls-1" d="M203.36,412.78v-.08c0-4.03-3.01-7.33-6.97-7.33s-6.86,3.31-6.86,7.27v.07c0,4.04,2.98,7.31,6.94,7.31s6.9-3.27,6.9-7.23M186.65,412.78v-.08c0-5.3,4.14-9.8,9.81-9.8s9.77,4.43,9.77,9.74v.07c0,5.31-4.17,9.81-9.84,9.81s-9.74-4.43-9.74-9.74"/>
  <path class="cls-1" d="M213.07,412.63v.07c0,4.43,3.09,7.27,6.61,7.27s6.79-2.94,6.79-7.27v-.07c0-4.33-3.3-7.23-6.79-7.23s-6.61,2.69-6.61,7.23M229.16,420.84c0,.8-.62,1.42-1.38,1.42s-1.42-.62-1.42-1.42v-2.54c-1.53,2.25-3.74,4.17-7.2,4.17-4.5,0-8.97-3.56-8.97-9.74v-.07c0-6.14,4.47-9.77,8.97-9.77,3.49,0,5.75,1.89,7.2,3.99v-10.1c0-.8.58-1.41,1.38-1.41s1.42.62,1.42,1.41v24.05Z"/>
  <path class="cls-1" d="M247.85,415.18v-1.82c-1.38-.4-3.23-.8-5.52-.8-3.53,0-5.49,1.53-5.49,3.89v.07c0,2.36,2.18,3.74,4.73,3.74,3.45,0,6.28-2.1,6.28-5.08M234,416.63v-.07c0-3.96,3.27-6.06,8.03-6.06,2.4,0,4.11.32,5.78.79v-.65c0-3.38-2.07-5.12-5.6-5.12-1.89,0-3.49.44-4.87,1.05-.18.07-.37.11-.51.11-.65,0-1.24-.55-1.24-1.21,0-.58.41-1.01.77-1.16,1.85-.8,3.74-1.27,6.14-1.27,2.66,0,4.69.68,6.07,2.07,1.27,1.27,1.92,3.09,1.92,5.49v10.28c0,.8-.59,1.38-1.34,1.38-.8,0-1.34-.58-1.34-1.31v-1.71c-1.31,1.71-3.49,3.24-6.8,3.24-3.49,0-7.01-2-7.01-5.85"/>
  <path class="cls-1" d="M255.48,427.45c-.43-.19-.87-.55-.87-1.2,0-.69.58-1.2,1.2-1.2.25,0,.47.07.69.14.55.19,1.09.33,2.04.33,1.74,0,2.76-1.05,3.78-3.34l.15-.29-7.85-16.64c-.11-.25-.19-.51-.19-.76,0-.77.62-1.38,1.42-1.38s1.17.47,1.42,1.09l6.54,14.75,5.81-14.79c.22-.58.62-1.05,1.34-1.05.77,0,1.38.62,1.38,1.38,0,.21-.07.47-.14.69l-7.34,17.51c-1.64,3.89-3.45,5.31-6.28,5.31-1.24,0-2.14-.22-3.09-.55"/>
  <path class="cls-1" d="M276.35,403.44c1.49-.65,2.1-1.56,2.04-2.98-.76-.19-1.42-.76-1.42-1.71v-.58c0-.94.72-1.71,1.67-1.71,1.05,0,1.78.84,1.78,2v.69c0,2.22-.47,3.53-1.31,4.36-.76.8-1.89,1.35-2.47,1.35-.47,0-.76-.3-.76-.73,0-.33.18-.58.47-.69"/>
  <path class="cls-1" d="M284.13,420.08c-.25-.19-.51-.55-.51-1.02,0-.65.55-1.2,1.24-1.2.25,0,.51.07.69.21,1.92,1.31,3.93,2,5.96,2,2.25,0,3.88-1.16,3.88-2.98v-.07c0-1.89-2.21-2.62-4.68-3.31-2.94-.83-6.22-1.85-6.22-5.3v-.07c0-3.23,2.69-5.38,6.4-5.38,2,0,4.18.62,6,1.59.36.22.69.62.69,1.17,0,.65-.55,1.2-1.24,1.2-.25,0-.47-.08-.62-.15-1.59-.91-3.31-1.45-4.9-1.45-2.21,0-3.63,1.16-3.63,2.72v.07c0,1.78,2.32,2.47,4.83,3.23,2.91.87,6.03,2,6.03,5.38v.07c0,3.56-2.94,5.63-6.68,5.63-2.47,0-5.19-.91-7.23-2.36"/>
  <path class="cls-1" d="M315.2,405.77h-1.52c-.69,0-1.2-.55-1.2-1.24s.54-1.2,1.2-1.2h1.52v-1.64c0-2.14.58-3.77,1.64-4.83.95-.94,2.32-1.45,4.03-1.45.9,0,1.6.07,2.21.21.55.12,1.02.59,1.02,1.21,0,.72-.62,1.27-1.34,1.2-.47-.07-.99-.18-1.53-.18-2.18,0-3.27,1.31-3.27,3.99v1.53h4.87c.69,0,1.24.51,1.24,1.19s-.55,1.21-1.24,1.21h-4.83v15.07c0,.76-.58,1.42-1.38,1.42s-1.42-.65-1.42-1.42v-15.07Z"/>
  <path class="cls-1" d="M343.58,420.84c0,.76-.58,1.42-1.38,1.42s-1.38-.62-1.38-1.42v-2.03c-1.27,2.03-3.19,3.67-6.43,3.67-4.55,0-7.19-3.06-7.19-7.52v-10.43c0-.8.58-1.42,1.38-1.42s1.42.62,1.42,1.42v9.74c0,3.49,1.88,5.66,5.19,5.66s5.62-2.36,5.62-5.88v-9.52c0-.8.58-1.42,1.38-1.42s1.38.62,1.38,1.42v16.31Z"/>
  <path class="cls-1" d="M350.86,417.1v-11.33h-1.53c-.65,0-1.23-.59-1.23-1.24,0-.69.58-1.24,1.23-1.24h1.53v-4.43c0-.76.58-1.42,1.38-1.42s1.42.65,1.42,1.42v4.43h4.87c.69,0,1.27.58,1.27,1.24,0,.69-.58,1.24-1.27,1.24h-4.87v10.97c0,2.28,1.27,3.12,3.16,3.12.98,0,1.48-.26,1.7-.26.65,0,1.2.55,1.2,1.2,0,.51-.33.91-.8,1.09-.8.32-1.67.51-2.76.51-3.01,0-5.3-1.49-5.3-5.31"/>
  <path class="cls-1" d="M380.65,420.84c0,.76-.58,1.42-1.38,1.42s-1.38-.62-1.38-1.42v-2.03c-1.27,2.03-3.19,3.67-6.43,3.67-4.55,0-7.19-3.06-7.19-7.52v-10.43c0-.8.58-1.42,1.38-1.42s1.42.62,1.42,1.42v9.74c0,3.49,1.88,5.66,5.19,5.66s5.63-2.36,5.63-5.88v-9.52c0-.8.58-1.42,1.38-1.42s1.38.62,1.38,1.42v16.31Z"/>
  <path class="cls-1" d="M386.95,404.53c0-.76.62-1.42,1.38-1.42s1.42.62,1.42,1.42v3.52c1.38-3.12,4.11-5.01,6.47-5.01.83,0,1.38.62,1.38,1.42,0,.76-.51,1.3-1.24,1.41-3.63.44-6.61,3.16-6.61,8.57v6.4c0,.76-.59,1.41-1.38,1.41s-1.42-.62-1.42-1.41v-16.31Z"/>
  <path class="cls-1" d="M414.63,411.65c-.29-3.41-2.25-6.39-5.99-6.39-3.27,0-5.74,2.72-6.11,6.39h12.1ZM409.07,422.51c-5.16,0-9.37-3.96-9.37-9.77v-.07c0-5.41,3.82-9.77,9.01-9.77,5.56,0,8.72,4.54,8.72,9.52,0,.76-.62,1.31-1.31,1.31h-13.59c.41,4.07,3.27,6.36,6.61,6.36,2.33,0,4.04-.91,5.42-2.18.21-.19.47-.33.8-.33.69,0,1.24.55,1.24,1.2,0,.33-.14.65-.43.91-1.78,1.71-3.89,2.83-7.08,2.83"/>
  <path class="cls-1" d="M264.29,89.73c0-4.27-3.46-7.73-7.73-7.73s-7.73,3.46-7.73,7.73v28.03c0,4.27,3.47,7.73,7.73,7.73s7.73-3.46,7.73-7.73v-28.03Z"/>
  <path class="cls-1" d="M180.21,145.78c0-4.27-3.46-7.73-7.73-7.73s-7.73,3.46-7.73,7.73,3.47,7.73,7.73,7.73,7.73-3.46,7.73-7.73"/>
  <path class="cls-1" d="M180.21,201.83c0-4.27-3.46-7.73-7.73-7.73s-7.73,3.46-7.73,7.73,3.47,7.73,7.73,7.73,7.73-3.46,7.73-7.73"/>
  <path class="cls-1" d="M200.51,222.12c-4.27,0-7.73,3.46-7.73,7.73s3.46,7.73,7.73,7.73h28.03c4.27,0,7.73-3.47,7.73-7.73s-3.46-7.73-7.73-7.73h-28.03Z"/>
  <path class="cls-4" d="M236.26,89.73c0-4.27-3.46-7.73-7.73-7.73s-7.73,3.46-7.73,7.73,3.47,7.73,7.73,7.73,7.73-3.46,7.73-7.73"/>
  <path class="cls-4" d="M292.31,89.73c0-4.27-3.46-7.73-7.73-7.73s-7.73,3.46-7.73,7.73,3.47,7.73,7.73,7.73,7.73-3.46,7.73-7.73"/>
  <path class="cls-4" d="M248.83,257.88c0,4.27,3.46,7.73,7.73,7.73s7.73-3.46,7.73-7.73v-28.03c0-4.27-3.47-7.73-7.73-7.73s-7.73,3.46-7.73,7.73v28.03Z"/>
  <path class="cls-4" d="M192.78,145.78c0,4.27,3.46,7.73,7.73,7.73s7.73-3.46,7.73-7.73v-28.03c0-4.27-3.47-7.73-7.73-7.73s-7.73,3.46-7.73,7.73v28.03Z"/>
  <path class="cls-4" d="M208.24,201.83c0-4.27-3.46-7.73-7.73-7.73s-7.73,3.46-7.73,7.73,3.47,7.73,7.73,7.73,7.73-3.46,7.73-7.73"/>
  <path class="cls-4" d="M320.34,229.85c0-4.27-3.46-7.73-7.73-7.73s-7.73,3.46-7.73,7.73,3.47,7.73,7.73,7.73,7.73-3.46,7.73-7.73"/>
  <path class="cls-5" d="M225.1,276.89v.05c.63,3.01,2.53,4.94,4.71,4.49,2.19-.45,3.11-2.95,2.5-5.93v-.05c-.63-2.98-2.55-4.94-4.71-4.49-2.16.45-3.12,2.93-2.5,5.93ZM292.2,263.89c-.67-.16-1.51-.18-2.38,0-1.53.31-2.34,1.12-2.11,2.25v.05c.21.96,1.12,1.36,2.28,1.13,1.67-.34,2.61-1.49,2.34-2.79l-.13-.63ZM242.33,273v.05c.78,2.97,2.77,4.81,4.93,4.25,2.16-.56,2.96-3.1,2.2-6.05v-.05c-.78-2.95-2.8-4.81-4.93-4.25-2.14.55-2.97,3.08-2.2,6.05ZM306.48,261.39c-.66-.19-1.5-.25-2.37-.11-1.54.24-2.39,1.01-2.21,2.15v.05c.16.97,1.06,1.41,2.22,1.23,1.68-.26,2.68-1.37,2.47-2.67l-.1-.64ZM149.51,286.36c6.51,8,21.24,11.75,21.24,11.75,0-.02.02-.06.04-.09l-.03.09,4.5-3.47h-.06c57.31,9.8,115.47-31.79,173.66-22.86l5.62,8.69c4.29,1.15,11.01,3.27,21.2,9.15-.12-.3-7.57-15.1-12.58-21.11,6.35-.91,14.03-5.94,14.03-5.94,0,0-4.47-7.12-23.82-12.5v-8.5c-29.71-5.91-59.41,2.03-89.01,10.25v-21.97c0-4.27-3.47-7.73-7.73-7.73-4.27,0-7.73,3.46-7.73,7.73v26.22c-25.63,6.86-51.17,12.15-76.53,7.03v5.45c-.32.05-11.22-3.43-21.34-9.24,1.65,4.76,12.58,21.11,12.58,21.11,0,0-3.4-.19-14.03,5.94ZM314.24,252.46c1-.11,1.9.61,2.02,1.61l.06.57c.38-1.3,1.11-2.54,2.19-2.66,1.12-.13,1.85.54,1.96,1.56.11.95-.45,1.6-1.17,1.85-1.79.64-2.65,2.16-2.36,4.74l.38,3.39c.11,1-.61,1.9-1.61,2.02-1,.11-1.9-.61-2.02-1.61l-1.07-9.44c-.11-1,.61-1.9,1.61-2.02ZM299.06,255.32c1.07-.61,2.27-1.04,3.95-1.3,1.97-.31,3.47-.01,4.52.75,1.1.8,1.74,2.13,2.01,3.84l.91,5.79c.15.97-.51,1.85-1.48,2.01-1.04.16-1.85-.46-1.97-1.22v-.02c-.73,1.11-1.84,1.94-3.59,2.22-2.39.38-4.58-.69-4.97-3.2v-.05c-.44-2.77,1.47-4.39,4.48-4.86,1.28-.2,2.24-.13,3.19.03l-.03-.21c-.24-1.49-1.29-2.18-3.09-1.9-1,.16-1.78.43-2.43.75-.2.1-.34.15-.51.18-.83.13-1.59-.41-1.72-1.24-.1-.64.22-1.25.75-1.55ZM284.5,258.18c1.04-.66,2.21-1.14,3.88-1.49,1.95-.4,3.47-.18,4.54.53,1.13.75,1.84,2.04,2.19,3.74l1.18,5.73c.2.96-.42,1.88-1.38,2.07-1.03.21-1.87-.37-2.02-1.13v-.02c-.68,1.14-1.74,2.02-3.48,2.38-2.37.49-4.6-.47-5.12-2.96v-.05c-.58-2.75,1.25-4.45,4.24-5.07,1.27-.26,2.23-.24,3.18-.12l-.04-.21c-.31-1.48-1.39-2.11-3.18-1.75-.99.2-1.76.51-2.39.86-.2.11-.33.17-.5.2-.82.17-1.61-.33-1.78-1.15-.13-.63.16-1.26.68-1.59ZM272.28,269.23c.44-.11.75-.06,1.16.11.85.36,1.55.48,2.37.28,1.4-.34,2.04-1.36,1.57-3.25l-2.17-8.85c-.25-1,.35-1.99,1.35-2.23s1.99.35,2.23,1.35l2.21,9.02c.47,1.93.27,3.52-.47,4.73-.76,1.25-2.1,2.12-3.87,2.56-1.86.46-3.44.18-4.66-.36-.44-.19-.88-.65-1.01-1.21-.23-.96.32-1.91,1.28-2.14ZM243.74,263.72c4.3-1.12,8.15,1.78,9.37,6.49v.05c1.24,4.71-.71,9.16-5.05,10.29-4.34,1.13-8.15-1.78-9.37-6.49v-.05c-1.24-4.71.73-9.17,5.05-10.29ZM226.97,267.68c4.35-.9,8.05,2.18,9.04,6.95v.05c1,4.77-1.17,9.12-5.56,10.03-4.39.91-8.05-2.18-9.04-6.95v-.05c-1-4.77,1.19-9.12,5.56-10.03ZM209.61,273.24c-.1-.74.29-1.42.99-1.74l2.26-1.02c.66-.29,1.17-.48,1.67-.55h.05c1-.15,1.92.55,2.06,1.55l1.87,13.41c.14,1-.56,1.92-1.56,2.06-1,.14-1.92-.56-2.06-1.56l-1.6-11.51-1.24.51c-.18.07-.44.16-.63.18-.86.12-1.69-.49-1.81-1.35ZM171.26,296.77c.29-.76.65-1.73,1.03-2.68,0,0,0,0,0,0l-1.03,2.68Z"/>
  <polygon class="cls-5" points="172.3 294.09 170.75 298.11 175.25 294.64 172.3 294.09"/>
  <rect class="cls-3" x="388.36" y="103.74" width="63.05" height="126.11"/>
  <rect class="cls-3" x="55.63" y="75.38" width="119.25" height="28.69"/>
  <path class="cls-2" d="M1719.16,117.75c0-4.27-3.46-7.73-7.73-7.73s-7.73,3.46-7.73,7.73,3.47,7.73,7.73,7.73,7.73-3.46,7.73-7.73"/>
  <path class="cls-2" d="M1767.47,110.03c-4.27,0-7.73,3.46-7.73,7.73s3.46,7.73,7.73,7.73h28.03c4.27,0,7.73-3.47,7.73-7.73s-3.46-7.73-7.73-7.73h-28.03Z"/>
  <path class="cls-2" d="M1655.38,166.08c-4.27,0-7.73,3.46-7.73,7.73s3.46,7.73,7.73,7.73h28.03c4.27,0,7.73-3.47,7.73-7.73s-3.46-7.73-7.73-7.73h-28.03Z"/>
  <path class="cls-2" d="M1719.16,257.88c0-4.27-3.46-7.73-7.73-7.73s-7.73,3.46-7.73,7.73,3.47,7.73,7.73,7.73,7.73-3.46,7.73-7.73"/>
  <path class="cls-2" d="M1775.21,229.85c0-4.27-3.46-7.73-7.73-7.73s-7.73,3.46-7.73,7.73,3.47,7.73,7.73,7.73,7.73-3.46,7.73-7.73"/>
  <rect class="cls-3" x="1871.25" y="103.74" width="63.05" height="126.11"/>
  <rect class="cls-3" x="1538.52" y="75.38" width="119.25" height="28.69"/>
  <path class="cls-4" d="M1215.67,89.73c0-4.27-3.46-7.73-7.73-7.73s-7.73,3.46-7.73,7.73,3.47,7.73,7.73,7.73,7.73-3.46,7.73-7.73"/>
  <path class="cls-4" d="M1271.71,89.73c0-4.27-3.46-7.73-7.73-7.73s-7.73,3.46-7.73,7.73,3.47,7.73,7.73,7.73,7.73-3.46,7.73-7.73"/>
  <path class="cls-4" d="M1172.18,145.78c0,4.27,3.46,7.73,7.73,7.73s7.73-3.46,7.73-7.73v-28.03c0-4.27-3.47-7.73-7.73-7.73s-7.73,3.46-7.73,7.73v28.03Z"/>
  <path class="cls-4" d="M1187.64,201.83c0-4.27-3.46-7.73-7.73-7.73s-7.73,3.46-7.73,7.73,3.47,7.73,7.73,7.73,7.73-3.46,7.73-7.73"/>
  <path class="cls-4" d="M1299.74,229.85c0-4.27-3.46-7.73-7.73-7.73s-7.73,3.46-7.73,7.73,3.47,7.73,7.73,7.73,7.73-3.46,7.73-7.73"/>
  <path class="cls-5" d="M1204.51,276.89v.05c.63,3.01,2.53,4.94,4.71,4.49,2.19-.45,3.11-2.95,2.5-5.93v-.05c-.63-2.98-2.55-4.94-4.71-4.49-2.16.45-3.12,2.93-2.5,5.93ZM1271.6,263.89c-.67-.16-1.51-.18-2.38,0-1.53.31-2.34,1.12-2.11,2.25v.05c.21.96,1.12,1.36,2.28,1.13,1.67-.34,2.61-1.49,2.34-2.79l-.13-.63ZM1221.74,273v.05c.78,2.97,2.77,4.81,4.93,4.25,2.16-.56,2.96-3.1,2.2-6.05v-.05c-.78-2.95-2.8-4.81-4.93-4.25-2.14.55-2.97,3.08-2.2,6.05ZM1285.89,261.39c-.66-.19-1.5-.25-2.37-.11-1.54.24-2.39,1.01-2.21,2.15v.05c.16.97,1.06,1.41,2.22,1.23,1.68-.26,2.68-1.37,2.47-2.67l-.1-.64ZM1128.91,286.36c6.51,8,21.24,11.75,21.24,11.75,0-.02.02-.06.04-.09l-.03.09,4.5-3.47h-.06c57.31,9.8,115.47-31.79,173.66-22.86l5.62,8.69c4.29,1.15,11.01,3.27,21.2,9.15-.12-.3-7.57-15.1-12.58-21.11,6.35-.91,14.03-5.94,14.03-5.94,0,0-4.47-7.12-23.82-12.5v-8.5c-29.71-5.91-59.41,2.03-89.01,10.25v-21.97c0-4.27-3.47-7.73-7.73-7.73-4.27,0-7.73,3.46-7.73,7.73v26.22c-25.63,6.86-51.17,12.15-76.53,7.03v5.45c-.32.05-11.22-3.43-21.34-9.24,1.65,4.76,12.58,21.11,12.58,21.11,0,0-3.4-.19-14.03,5.94ZM1293.65,252.46c1-.11,1.9.61,2.02,1.61l.06.57c.38-1.3,1.11-2.54,2.19-2.66,1.12-.13,1.85.54,1.96,1.56.11.95-.45,1.6-1.17,1.85-1.79.64-2.65,2.16-2.36,4.74l.38,3.39c.11,1-.61,1.9-1.61,2.02-1,.11-1.9-.61-2.02-1.61l-1.07-9.44c-.11-1,.61-1.9,1.61-2.02ZM1278.47,255.32c1.07-.61,2.27-1.04,3.95-1.3,1.97-.31,3.47-.01,4.52.75,1.1.8,1.74,2.13,2.01,3.84l.91,5.79c.15.97-.51,1.85-1.48,2.01-1.04.16-1.85-.46-1.97-1.22v-.02c-.73,1.11-1.84,1.94-3.59,2.22-2.39.38-4.58-.69-4.97-3.2v-.05c-.44-2.77,1.47-4.39,4.48-4.86,1.28-.2,2.24-.13,3.19.03l-.03-.21c-.24-1.49-1.29-2.18-3.09-1.9-1,.16-1.78.43-2.43.75-.2.1-.34.15-.51.18-.83.13-1.59-.41-1.72-1.24-.1-.64.22-1.25.75-1.55ZM1263.91,258.18c1.04-.66,2.21-1.14,3.88-1.49,1.95-.4,3.47-.18,4.54.53,1.13.75,1.84,2.04,2.19,3.74l1.18,5.73c.2.96-.42,1.88-1.38,2.07-1.03.21-1.87-.37-2.02-1.13v-.02c-.68,1.14-1.74,2.02-3.48,2.38-2.37.49-4.6-.47-5.12-2.96v-.05c-.58-2.75,1.25-4.45,4.24-5.07,1.27-.26,2.23-.24,3.18-.12l-.04-.21c-.31-1.48-1.39-2.11-3.18-1.75-.99.2-1.76.51-2.39.86-.2.11-.33.17-.5.2-.82.17-1.61-.33-1.78-1.15-.13-.63.16-1.26.68-1.59ZM1251.69,269.23c.44-.11.75-.06,1.16.11.85.36,1.55.48,2.37.28,1.4-.34,2.04-1.36,1.57-3.25l-2.17-8.85c-.25-1,.35-1.99,1.35-2.23s1.99.35,2.23,1.35l2.21,9.02c.47,1.93.27,3.52-.47,4.73-.76,1.25-2.1,2.12-3.87,2.56-1.86.46-3.44.18-4.66-.36-.44-.19-.88-.65-1.01-1.21-.23-.96.32-1.91,1.28-2.14ZM1223.14,263.72c4.3-1.12,8.15,1.78,9.37,6.49v.05c1.24,4.71-.71,9.16-5.05,10.29-4.34,1.13-8.15-1.78-9.37-6.49v-.05c-1.24-4.71.73-9.17,5.05-10.29ZM1206.37,267.68c4.35-.9,8.05,2.18,9.04,6.95v.05c1,4.77-1.17,9.12-5.56,10.03-4.39.91-8.05-2.18-9.04-6.95v-.05c-1-4.77,1.19-9.12,5.56-10.03ZM1189.02,273.24c-.1-.74.29-1.42.99-1.74l2.26-1.02c.66-.29,1.17-.48,1.67-.55h.05c1-.15,1.92.55,2.06,1.55l1.87,13.41c.14,1-.56,1.92-1.56,2.06-1,.14-1.92-.56-2.06-1.56l-1.6-11.51-1.24.51c-.18.07-.44.16-.63.18-.86.12-1.69-.49-1.81-1.35ZM1150.67,296.77c.29-.76.65-1.73,1.03-2.68,0,0,0,0,0,0l-1.03,2.68Z"/>
  <rect class="cls-3" x="1367.76" y="103.74" width="63.05" height="126.11"/>
  <rect class="cls-3" x="1035.03" y="75.38" width="119.25" height="28.69"/>
  <path class="cls-1" d="M732.84,317.23c0-4.27,3.46-7.73,7.73-7.73s7.73,3.46,7.73,7.73v.61c3.56-4.58,8.24-8.74,16.07-8.74,7.12,0,12.51,3.15,15.36,8.64,4.78-5.6,10.47-8.64,17.9-8.64,11.49,0,18.41,6.91,18.41,20.03v28.38c0,4.27-3.46,7.73-7.73,7.73s-7.73-3.46-7.73-7.73v-23.29c0-7.32-3.26-11.08-9.05-11.08s-9.35,3.76-9.35,11.08v23.29c0,4.27-3.46,7.73-7.73,7.73s-7.73-3.46-7.73-7.73v-23.29c0-7.32-3.26-11.08-9.06-11.08s-9.35,3.76-9.35,11.08v23.29c0,4.27-3.46,7.73-7.73,7.73s-7.73-3.46-7.73-7.73v-40.28Z"/>
  <path class="cls-1" d="M890.77,297.5c0-4.27,3.46-7.73,7.73-7.73s7.73,3.46,7.73,7.73v60c0,4.27-3.46,7.73-7.73,7.73s-7.73-3.46-7.73-7.73v-60Z"/>
  <path class="cls-1" d="M547.45,337.67v-.21c0-15.56,11.9-28.37,28.58-28.37,8.24,0,14.04,2.24,18.61,6.1,1.02.82,2.44,2.65,2.44,5.29,0,3.86-3.15,6.91-7.02,6.91-2.04,0-3.56-.82-4.48-1.52-2.74-2.14-5.59-3.46-9.66-3.46-7.73,0-13.22,6.82-13.22,14.85v.2c0,8.34,5.39,15.05,13.83,15.05,4.07,0,7.22-1.42,10.17-3.76.82-.61,2.34-1.42,4.17-1.42,3.67,0,6.51,2.95,6.51,6.61,0,2.03-.92,3.66-2.24,4.88-4.57,4.17-10.38,7.02-19.32,7.02-16.38,0-28.38-12.61-28.38-28.17"/>
  <path class="cls-1" d="M608.16,297.5c0-4.27,3.46-7.73,7.73-7.73s7.73,3.46,7.73,7.73v20.34c3.56-4.57,8.13-8.74,15.97-8.74,11.7,0,18.51,7.73,18.51,20.24v28.17c0,4.27-3.46,7.73-7.73,7.73s-7.72-3.46-7.72-7.73v-23.29c0-7.32-3.46-11.09-9.36-11.09s-9.66,3.76-9.66,11.09v23.29c0,4.27-3.46,7.73-7.73,7.73s-7.73-3.46-7.73-7.73v-60Z"/>
  <path class="cls-1" d="M697.35,365.84c-16.37,0-28.47-11.49-28.47-28.17v-.2c0-15.57,11.09-28.38,26.95-28.38,18.21,0,26.24,14.95,26.24,26.24,0,4.48-3.15,7.43-7.22,7.43h-30.61c1.53,7.02,6.41,10.67,13.32,10.67,4.27,0,7.83-1.32,10.99-3.66,1.12-.82,2.13-1.22,3.76-1.22,3.46,0,6,2.65,6,6.1,0,2.03-.91,3.56-2.03,4.57-4.78,4.07-10.99,6.61-18.92,6.61M707.32,333.1c-.92-6.92-4.99-11.6-11.49-11.6s-10.58,4.58-11.8,11.6h23.29Z"/>
  <path class="cls-1" d="M855.28,365.84c-16.37,0-28.47-11.49-28.47-28.17v-.2c0-15.57,11.09-28.38,26.95-28.38,18.21,0,26.24,14.95,26.24,26.24,0,4.48-3.15,7.43-7.22,7.43h-30.61c1.53,7.02,6.41,10.67,13.32,10.67,4.27,0,7.83-1.32,10.99-3.66,1.12-.82,2.13-1.22,3.76-1.22,3.46,0,6,2.65,6,6.1,0,2.03-.91,3.56-2.03,4.57-4.78,4.07-10.99,6.61-18.92,6.61M865.25,333.1c-.92-6.92-4.99-11.6-11.49-11.6s-10.58,4.58-11.8,11.6h23.29Z"/>
  <path class="cls-1" d="M917.01,337.67v-.21c0-15.66,12.61-28.37,29.59-28.37s29.39,12.51,29.39,28.17v.2c0,15.66-12.61,28.38-29.6,28.38s-29.39-12.51-29.39-28.17M960.74,337.67v-.21c0-8.04-5.8-15.05-14.34-15.05s-14.13,6.82-14.13,14.85v.2c0,8.04,5.8,15.05,14.33,15.05s14.14-6.81,14.14-14.85"/>
  <path class="cls-1" d="M986.77,297.5c0-4.27,3.46-7.73,7.73-7.73s7.73,3.46,7.73,7.73v11.62h6.82c3.66,0,6.61,2.95,6.61,6.62s-2.95,6.61-6.61,6.61h-6.82v23.97c0,3.56,1.53,5.29,4.98,5.29.51,0,1.53-.1,1.83-.1,3.46,0,6.41,2.85,6.41,6.41,0,2.75-1.83,4.98-3.96,5.8-2.85,1.12-5.49,1.53-8.85,1.53-9.46,0-15.86-3.76-15.86-16.38v-51.36Z"/>
  <path class="cls-1" d="M630.52,405.77h-1.53c-.69,0-1.2-.55-1.2-1.24s.54-1.2,1.2-1.2h1.53v-1.64c0-2.14.58-3.77,1.63-4.83.95-.94,2.33-1.45,4.04-1.45.9,0,1.6.07,2.22.21.54.12,1.02.59,1.02,1.21,0,.72-.62,1.27-1.34,1.2-.48-.07-.99-.18-1.53-.18-2.18,0-3.27,1.31-3.27,3.99v1.53h4.87c.69,0,1.24.51,1.24,1.19s-.54,1.21-1.24,1.21h-4.83v15.07c0,.76-.59,1.42-1.38,1.42s-1.42-.65-1.42-1.42v-15.07Z"/>
  <path class="cls-1" d="M657.99,412.78v-.08c0-4.03-3.01-7.33-6.97-7.33s-6.86,3.31-6.86,7.27v.07c0,4.04,2.98,7.31,6.94,7.31s6.9-3.27,6.9-7.23M641.28,412.78v-.08c0-5.3,4.15-9.8,9.81-9.8s9.77,4.43,9.77,9.74v.07c0,5.31-4.17,9.81-9.84,9.81s-9.74-4.43-9.74-9.74"/>
  <path class="cls-1" d="M665.92,404.53c0-.76.62-1.42,1.38-1.42.8,0,1.42.62,1.42,1.42v3.52c1.38-3.12,4.11-5.01,6.47-5.01.83,0,1.38.62,1.38,1.42,0,.76-.51,1.3-1.24,1.41-3.63.44-6.61,3.16-6.61,8.57v6.4c0,.76-.58,1.41-1.38,1.41s-1.42-.62-1.42-1.41v-16.31Z"/>
  <path class="cls-1" d="M692.53,417.1v-11.33h-1.53c-.65,0-1.24-.59-1.24-1.24,0-.69.58-1.24,1.24-1.24h1.53v-4.43c0-.76.58-1.42,1.38-1.42.76,0,1.41.65,1.41,1.42v4.43h4.87c.69,0,1.27.58,1.27,1.24,0,.69-.58,1.24-1.27,1.24h-4.87v10.97c0,2.28,1.27,3.12,3.16,3.12.98,0,1.49-.26,1.7-.26.66,0,1.2.55,1.2,1.2,0,.51-.33.91-.8,1.09-.8.32-1.66.51-2.76.51-3.02,0-5.3-1.49-5.3-5.31"/>
  <path class="cls-1" d="M721.23,412.78v-.08c0-4.03-3.01-7.33-6.97-7.33s-6.86,3.31-6.86,7.27v.07c0,4.04,2.98,7.31,6.94,7.31s6.9-3.27,6.9-7.23M704.52,412.78v-.08c0-5.3,4.14-9.8,9.81-9.8s9.77,4.43,9.77,9.74v.07c0,5.31-4.17,9.81-9.84,9.81s-9.74-4.43-9.74-9.74"/>
  <path class="cls-1" d="M730.94,412.63v.07c0,4.43,3.09,7.27,6.61,7.27s6.79-2.94,6.79-7.27v-.07c0-4.33-3.3-7.23-6.79-7.23s-6.61,2.69-6.61,7.23M747.04,420.84c0,.8-.62,1.42-1.38,1.42s-1.42-.62-1.42-1.42v-2.54c-1.53,2.25-3.74,4.17-7.2,4.17-4.5,0-8.97-3.56-8.97-9.74v-.07c0-6.14,4.47-9.77,8.97-9.77,3.49,0,5.75,1.89,7.2,3.99v-10.1c0-.8.58-1.41,1.38-1.41s1.42.62,1.42,1.41v24.05Z"/>
  <path class="cls-1" d="M765.72,415.18v-1.82c-1.38-.4-3.23-.8-5.52-.8-3.53,0-5.49,1.53-5.49,3.89v.07c0,2.36,2.18,3.74,4.73,3.74,3.45,0,6.28-2.1,6.28-5.08M751.88,416.63v-.07c0-3.96,3.27-6.06,8.03-6.06,2.4,0,4.11.32,5.78.79v-.65c0-3.38-2.07-5.12-5.6-5.12-1.89,0-3.49.44-4.87,1.05-.18.07-.37.11-.51.11-.65,0-1.24-.55-1.24-1.21,0-.58.41-1.01.77-1.16,1.85-.8,3.74-1.27,6.14-1.27,2.66,0,4.69.68,6.07,2.07,1.27,1.27,1.92,3.09,1.92,5.49v10.28c0,.8-.59,1.38-1.34,1.38-.8,0-1.34-.58-1.34-1.31v-1.71c-1.31,1.71-3.49,3.24-6.8,3.24-3.49,0-7.01-2-7.01-5.85"/>
  <path class="cls-1" d="M773.36,427.45c-.43-.19-.87-.55-.87-1.2,0-.69.58-1.2,1.2-1.2.25,0,.47.07.69.14.55.19,1.09.33,2.04.33,1.74,0,2.76-1.05,3.78-3.34l.15-.29-7.85-16.64c-.11-.25-.19-.51-.19-.76,0-.77.62-1.38,1.42-1.38s1.17.47,1.42,1.09l6.54,14.75,5.81-14.79c.22-.58.62-1.05,1.34-1.05.77,0,1.38.62,1.38,1.38,0,.21-.07.47-.14.69l-7.34,17.51c-1.64,3.89-3.45,5.31-6.28,5.31-1.24,0-2.14-.22-3.09-.55"/>
  <path class="cls-1" d="M794.22,403.44c1.49-.65,2.1-1.56,2.04-2.98-.76-.19-1.42-.76-1.42-1.71v-.58c0-.94.72-1.71,1.67-1.71,1.05,0,1.78.84,1.78,2v.69c0,2.22-.47,3.53-1.31,4.36-.76.8-1.89,1.35-2.47,1.35-.47,0-.76-.3-.76-.73,0-.33.18-.58.47-.69"/>
  <path class="cls-1" d="M802,420.08c-.25-.19-.51-.55-.51-1.02,0-.65.55-1.2,1.24-1.2.25,0,.51.07.69.21,1.92,1.31,3.93,2,5.96,2,2.25,0,3.88-1.16,3.88-2.98v-.07c0-1.89-2.21-2.62-4.68-3.31-2.94-.83-6.22-1.85-6.22-5.3v-.07c0-3.23,2.69-5.38,6.4-5.38,2,0,4.18.62,6,1.59.36.22.69.62.69,1.17,0,.65-.55,1.2-1.24,1.2-.25,0-.47-.08-.62-.15-1.59-.91-3.31-1.45-4.9-1.45-2.21,0-3.63,1.16-3.63,2.72v.07c0,1.78,2.32,2.47,4.83,3.23,2.91.87,6.03,2,6.03,5.38v.07c0,3.56-2.94,5.63-6.68,5.63-2.47,0-5.19-.91-7.23-2.36"/>
  <path class="cls-1" d="M833.07,405.77h-1.52c-.69,0-1.2-.55-1.2-1.24s.54-1.2,1.2-1.2h1.52v-1.64c0-2.14.58-3.77,1.64-4.83.95-.94,2.32-1.45,4.03-1.45.9,0,1.6.07,2.21.21.55.12,1.02.59,1.02,1.21,0,.72-.62,1.27-1.34,1.2-.47-.07-.99-.18-1.53-.18-2.18,0-3.27,1.31-3.27,3.99v1.53h4.87c.69,0,1.24.51,1.24,1.19s-.55,1.21-1.24,1.21h-4.83v15.07c0,.76-.58,1.42-1.38,1.42s-1.42-.65-1.42-1.42v-15.07Z"/>
  <path class="cls-1" d="M861.45,420.84c0,.76-.58,1.42-1.38,1.42s-1.38-.62-1.38-1.42v-2.03c-1.27,2.03-3.19,3.67-6.43,3.67-4.55,0-7.19-3.06-7.19-7.52v-10.43c0-.8.58-1.42,1.38-1.42s1.42.62,1.42,1.42v9.74c0,3.49,1.88,5.66,5.19,5.66s5.62-2.36,5.62-5.88v-9.52c0-.8.58-1.42,1.38-1.42s1.38.62,1.38,1.42v16.31Z"/>
  <path class="cls-1" d="M868.73,417.1v-11.33h-1.53c-.65,0-1.23-.59-1.23-1.24,0-.69.58-1.24,1.23-1.24h1.53v-4.43c0-.76.58-1.42,1.38-1.42s1.42.65,1.42,1.42v4.43h4.87c.69,0,1.27.58,1.27,1.24,0,.69-.58,1.24-1.27,1.24h-4.87v10.97c0,2.28,1.27,3.12,3.16,3.12.98,0,1.48-.26,1.7-.26.65,0,1.2.55,1.2,1.2,0,.51-.33.91-.8,1.09-.8.32-1.67.51-2.76.51-3.01,0-5.3-1.49-5.3-5.31"/>
  <path class="cls-1" d="M898.52,420.84c0,.76-.58,1.42-1.38,1.42s-1.38-.62-1.38-1.42v-2.03c-1.27,2.03-3.19,3.67-6.43,3.67-4.55,0-7.19-3.06-7.19-7.52v-10.43c0-.8.58-1.42,1.38-1.42s1.42.62,1.42,1.42v9.74c0,3.49,1.88,5.66,5.19,5.66s5.63-2.36,5.63-5.88v-9.52c0-.8.58-1.42,1.38-1.42s1.38.62,1.38,1.42v16.31Z"/>
  <path class="cls-1" d="M904.82,404.53c0-.76.62-1.42,1.38-1.42s1.42.62,1.42,1.42v3.52c1.38-3.12,4.11-5.01,6.47-5.01.83,0,1.38.62,1.38,1.42,0,.76-.51,1.3-1.24,1.41-3.63.44-6.61,3.16-6.61,8.57v6.4c0,.76-.59,1.41-1.38,1.41s-1.42-.62-1.42-1.41v-16.31Z"/>
  <path class="cls-1" d="M932.5,411.65c-.29-3.41-2.25-6.39-5.99-6.39-3.27,0-5.74,2.72-6.11,6.39h12.1ZM926.95,422.51c-5.16,0-9.37-3.96-9.37-9.77v-.07c0-5.41,3.82-9.77,9.01-9.77,5.56,0,8.72,4.54,8.72,9.52,0,.76-.62,1.31-1.31,1.31h-13.59c.41,4.07,3.27,6.36,6.61,6.36,2.33,0,4.04-.91,5.42-2.18.21-.19.47-.33.8-.33.69,0,1.24.55,1.24,1.2,0,.33-.14.65-.43.91-1.78,1.71-3.89,2.83-7.08,2.83"/>
  <path class="cls-1" d="M782.16,89.73c0-4.27-3.46-7.73-7.73-7.73s-7.73,3.46-7.73,7.73v28.03c0,4.27,3.47,7.73,7.73,7.73s7.73-3.46,7.73-7.73v-28.03Z"/>
  <path class="cls-1" d="M698.09,145.78c0-4.27-3.46-7.73-7.73-7.73s-7.73,3.46-7.73,7.73,3.47,7.73,7.73,7.73,7.73-3.46,7.73-7.73"/>
  <path class="cls-1" d="M698.09,201.83c0-4.27-3.46-7.73-7.73-7.73s-7.73,3.46-7.73,7.73,3.47,7.73,7.73,7.73,7.73-3.46,7.73-7.73"/>
  <path class="cls-1" d="M718.38,222.12c-4.27,0-7.73,3.46-7.73,7.73s3.46,7.73,7.73,7.73h28.03c4.27,0,7.73-3.47,7.73-7.73s-3.46-7.73-7.73-7.73h-28.03Z"/>
  <rect class="cls-3" x="906.23" y="103.74" width="63.05" height="126.11"/>
  <rect class="cls-3" x="573.5" y="75.38" width="119.25" height="28.69"/>
</svg>